<svg id="svg" xmlns="http://www.w3.org/2000/svg" xmlns:xlink="http://www.w3.org/1999/xlink" width="400" height="225" viewBox="0, 0, 400,225"><g id="svgg"><path id="path0" d="M174.564 66.811 C 172.103 66.965,171.153 69.647,173.035 71.128 C 174.437 72.231,183.468 71.694,184.124 70.468 C 185.320 68.233,183.890 66.861,180.336 66.835 C 178.895 66.824,177.259 66.799,176.702 66.778 C 176.145 66.758,175.183 66.773,174.564 66.811 M181.077 75.701 C 179.847 76.481,178.276 77.441,177.586 77.833 C 175.559 78.986,175.127 79.492,175.127 80.704 C 175.127 82.661,176.740 83.587,178.512 82.648 C 185.534 78.925,187.411 76.853,185.498 74.940 C 184.462 73.904,183.706 74.034,181.077 75.701 M188.043 80.309 C 187.654 80.626,185.706 83.712,185.706 84.011 C 185.706 84.057,185.149 85.103,184.468 86.335 C 183.520 88.051,183.230 88.798,183.230 89.520 C 183.230 92.170,186.247 92.570,187.529 90.090 C 187.703 89.754,188.290 88.669,188.833 87.677 C 191.626 82.586,191.846 81.738,190.676 80.568 C 189.910 79.802,188.799 79.693,188.043 80.309 M128.306 128.567 C 119.529 129.861,114.350 136.279,114.350 145.864 C 114.350 156.673,120.635 163.196,131.050 163.196 C 142.099 163.196,148.103 157.120,148.112 145.929 C 148.122 134.017,139.946 126.850,128.306 128.567 M288.713 128.661 C 279.079 130.204,274.311 135.891,274.292 145.864 C 274.274 155.061,278.174 160.774,285.661 162.517 C 286.336 162.674,287.182 162.891,287.541 162.999 C 289.037 163.451,295.752 163.230,298.143 162.650 C 301.022 161.952,304.365 160.764,304.727 160.311 C 305.156 159.774,305.130 146.470,304.700 146.113 C 304.481 145.931,302.499 145.874,297.891 145.917 L 291.390 145.976 291.277 147.512 C 291.110 149.801,290.888 149.690,295.654 149.690 C 300.567 149.690,300.056 149.154,300.056 154.318 C 300.056 158.987,300.234 158.723,296.733 159.249 C 285.434 160.946,279.347 156.237,279.347 145.797 C 279.347 139.648,281.476 135.631,285.899 133.434 C 290.506 131.145,298.100 132.132,303.061 135.664 C 304.644 136.791,304.783 136.644,304.783 133.856 C 304.783 131.111,304.935 131.313,302.072 130.241 C 297.767 128.628,292.678 128.026,288.713 128.661 M90.422 129.349 C 90.335 129.436,90.264 136.923,90.264 145.988 L 90.264 162.469 90.763 162.599 C 91.551 162.805,111.729 162.765,112.053 162.556 C 112.260 162.424,112.326 161.882,112.278 160.700 L 112.212 159.032 103.770 158.920 L 95.329 158.807 95.217 144.063 L 95.104 129.319 92.842 129.255 C 91.597 129.220,90.509 129.263,90.422 129.349 M162.354 129.938 C 162.220 130.340,161.913 131.176,161.672 131.795 C 160.846 133.912,157.955 141.472,157.325 143.163 C 156.979 144.091,156.381 145.661,155.995 146.652 C 155.609 147.642,155.011 149.212,154.665 150.141 C 153.367 153.631,150.834 160.198,150.383 161.247 C 149.758 162.700,149.820 162.746,152.399 162.746 L 154.631 162.746 154.991 162.050 C 155.363 161.331,156.261 158.945,157.272 155.993 C 157.590 155.065,157.992 154.026,158.165 153.686 L 158.481 153.067 165.672 153.067 L 172.864 153.067 173.173 153.686 C 173.343 154.026,174.119 156.078,174.898 158.244 C 176.581 162.931,176.404 162.746,179.208 162.746 C 182.049 162.746,181.966 163.071,180.238 158.694 C 179.554 156.963,177.870 152.575,176.264 148.340 C 175.630 146.669,174.871 144.693,174.578 143.950 C 174.285 143.208,173.833 142.043,173.573 141.362 C 173.314 140.681,172.558 138.706,171.893 136.972 C 171.227 135.239,170.300 132.783,169.831 131.514 L 168.980 129.207 165.788 129.207 L 162.597 129.207 162.354 129.938 M185.590 129.474 C 185.528 129.637,185.503 137.164,185.535 146.201 L 185.594 162.634 190.996 162.701 C 204.901 162.874,210.882 160.351,214.221 152.904 C 218.624 143.082,213.555 132.628,203.039 129.845 C 200.671 129.219,185.808 128.903,185.590 129.474 M220.015 129.512 C 219.949 129.683,219.927 130.368,219.965 131.034 L 220.034 132.245 222.207 132.310 C 223.672 132.353,224.462 132.471,224.629 132.672 C 224.805 132.884,224.860 136.797,224.819 146.114 L 224.761 159.257 222.397 159.370 L 220.034 159.482 219.968 160.973 C 219.884 162.866,219.352 162.740,227.462 162.740 C 234.982 162.739,234.598 162.838,234.508 160.925 L 234.440 159.482 232.304 159.417 C 231.129 159.381,230.092 159.276,230.000 159.184 C 229.800 158.984,229.750 132.809,229.949 132.609 C 230.024 132.533,231.066 132.420,232.263 132.358 L 234.440 132.245 234.440 130.782 L 234.440 129.319 227.287 129.260 C 221.365 129.210,220.114 129.254,220.015 129.512 M241.306 145.834 C 241.306 160.799,241.341 162.487,241.662 162.610 C 242.248 162.835,244.904 162.764,245.377 162.511 C 245.807 162.281,245.817 161.947,245.807 148.611 C 245.802 141.095,245.800 134.820,245.803 134.665 C 245.823 133.512,248.533 137.893,259.110 156.180 C 262.102 161.353,262.749 162.418,262.993 162.574 C 263.344 162.798,267.907 162.785,268.263 162.560 C 268.486 162.418,268.533 158.925,268.488 145.850 L 268.430 129.319 266.310 129.254 C 264.766 129.206,264.141 129.267,264.007 129.479 C 263.905 129.639,263.821 135.476,263.819 142.450 C 263.815 156.624,263.903 156.033,262.230 153.164 C 261.658 152.182,260.135 149.559,258.845 147.334 C 257.555 145.109,254.676 140.146,252.448 136.304 L 248.396 129.319 244.851 129.257 L 241.306 129.195 241.306 145.834 M134.442 132.569 C 139.111 133.763,141.016 135.931,142.753 142.025 C 143.517 144.704,142.937 150.383,141.592 153.406 C 137.204 163.261,121.488 160.806,119.963 150.028 C 119.858 149.285,119.669 148.019,119.543 147.214 C 119.152 144.715,120.065 140.096,121.480 137.421 C 123.639 133.337,129.243 131.239,134.442 132.569 M200.675 133.466 C 207.323 135.072,210.467 139.096,210.467 146.000 C 210.467 154.571,205.744 158.524,195.110 158.852 L 190.896 158.982 190.665 158.374 C 190.333 157.501,190.349 133.837,190.681 133.216 C 191.035 132.554,197.580 132.718,200.675 133.466 M166.624 135.791 C 167.442 138.101,168.310 140.431,170.063 145.025 C 170.903 147.225,171.520 149.095,171.435 149.180 C 171.203 149.412,160.243 149.303,160.006 149.066 C 159.884 148.944,160.021 148.329,160.349 147.532 C 160.650 146.800,161.318 145.037,161.834 143.613 C 162.350 142.189,162.907 140.720,163.072 140.349 C 163.237 139.977,163.700 138.762,164.102 137.648 C 165.621 133.427,165.753 133.330,166.624 135.791 M312.368 156.587 C 312.120 156.835,312.187 161.829,312.445 162.311 C 312.654 162.702,312.935 162.746,315.202 162.743 C 318.509 162.738,318.316 162.947,318.240 159.465 L 318.177 156.556 315.351 156.493 C 313.796 156.459,312.454 156.501,312.368 156.587 M328.419 159.464 L 328.419 162.486 330.051 162.560 C 330.948 162.600,332.265 162.603,332.977 162.566 L 334.271 162.499 334.271 159.471 L 334.271 156.443 331.345 156.443 L 328.419 156.443 328.419 159.464 M344.551 156.594 C 344.468 156.676,344.401 158.044,344.401 159.632 L 344.401 162.521 347.327 162.521 L 350.253 162.521 350.253 159.482 L 350.253 156.443 347.477 156.443 C 345.950 156.443,344.633 156.511,344.551 156.594 " stroke="none" fill="#f4f4f4" fill-rule="evenodd"></path><path id="path1" d="M0.000 112.549 L 0.000 225.098 200.000 225.098 L 400.000 225.098 400.000 112.549 L 400.000 0.000 200.000 0.000 L 0.000 0.000 0.000 112.549 M197.002 44.227 C 198.005 44.909,198.202 46.256,198.045 51.394 C 197.913 55.750,197.126 56.915,195.271 55.500 L 194.485 54.901 194.485 50.291 C 194.485 45.445,194.651 44.437,195.533 43.924 C 196.093 43.599,196.071 43.594,197.002 44.227 M208.169 47.190 C 209.416 47.524,209.640 49.220,208.658 50.886 C 208.282 51.524,207.359 53.225,206.607 54.667 C 204.787 58.155,204.084 58.736,202.605 57.971 C 201.805 57.557,201.650 57.157,201.837 55.975 C 201.977 55.081,202.155 54.687,203.510 52.257 C 206.649 46.629,206.535 46.752,208.169 47.190 M216.227 55.745 C 218.757 57.404,217.596 59.159,211.705 62.581 C 211.334 62.797,210.574 63.237,210.017 63.560 C 208.006 64.726,206.415 63.986,206.415 61.886 C 206.415 60.695,206.986 60.072,209.412 58.614 C 210.008 58.256,210.920 57.685,211.438 57.345 C 214.086 55.608,215.365 55.181,216.227 55.745 M183.478 66.688 C 185.906 68.305,185.110 71.713,182.213 72.110 C 180.852 72.296,174.958 72.302,174.036 72.117 C 171.313 71.573,170.680 67.409,173.168 66.407 C 174.385 65.917,182.659 66.143,183.478 66.688 M219.343 67.067 C 220.954 68.129,220.972 70.513,219.377 71.338 C 218.688 71.694,210.770 71.833,209.813 71.506 C 207.728 70.793,207.589 67.941,209.588 66.914 C 210.576 66.406,218.530 66.531,219.343 67.067 M185.105 73.914 C 186.595 74.537,187.241 76.930,186.269 78.224 C 185.879 78.743,183.288 80.447,179.264 82.829 C 176.578 84.419,173.820 82.678,174.648 79.915 C 174.947 78.917,175.379 78.564,179.066 76.308 C 183.749 73.443,183.866 73.397,185.105 73.914 M212.628 76.201 C 217.786 79.290,218.633 80.467,217.051 82.353 C 215.786 83.862,214.470 83.498,209.454 80.251 C 208.835 79.850,207.997 79.333,207.592 79.102 C 205.244 77.762,205.950 74.151,208.576 74.072 C 208.836 74.064,210.659 75.022,212.628 76.201 M190.851 80.030 C 192.457 81.381,192.323 82.171,189.634 87.202 C 187.248 91.666,186.795 92.178,185.227 92.178 C 182.919 92.178,182.041 89.797,183.416 87.270 C 183.766 86.626,184.699 84.899,185.488 83.430 C 187.712 79.292,189.002 78.474,190.851 80.030 M204.978 79.785 C 205.397 80.078,207.416 83.552,209.343 87.292 C 210.714 89.953,209.593 92.126,206.995 91.845 C 206.147 91.754,205.522 91.103,204.540 89.288 C 203.994 88.278,203.317 87.046,203.036 86.550 C 201.023 82.996,200.757 82.085,201.329 80.714 C 201.842 79.487,203.830 78.981,204.978 79.785 M197.844 82.178 C 198.786 83.120,198.797 83.201,198.718 88.773 L 198.649 93.676 197.809 94.447 C 196.530 95.617,194.854 95.413,194.074 93.991 C 193.429 92.815,193.389 84.282,194.023 82.974 C 194.824 81.318,196.612 80.946,197.844 82.178 M135.329 128.325 C 143.790 130.052,148.565 136.442,148.565 146.035 C 148.565 154.059,144.941 159.964,138.436 162.543 L 136.522 163.302 131.807 163.379 C 126.765 163.460,126.277 163.395,123.539 162.275 C 115.606 159.028,112.138 149.692,114.976 139.223 C 116.504 133.585,120.440 130.071,127.181 128.326 C 128.301 128.036,133.911 128.035,135.329 128.325 M297.581 128.532 C 299.607 128.964,302.056 129.741,304.029 130.576 C 305.114 131.036,305.235 131.457,305.162 134.496 C 305.097 137.156,304.784 137.390,303.013 136.100 C 297.998 132.448,289.878 131.549,285.424 134.153 C 281.450 136.475,279.734 139.928,279.714 145.639 C 279.677 155.933,285.583 160.492,296.769 158.806 C 299.795 158.350,299.606 158.666,299.606 154.052 L 299.606 150.141 295.652 150.141 C 290.687 150.141,290.827 150.208,290.827 147.814 C 290.827 146.667,290.931 145.850,291.097 145.684 C 291.555 145.226,304.638 145.305,305.022 145.768 C 305.323 146.131,305.444 160.197,305.150 160.673 C 304.934 161.023,301.196 162.293,298.030 163.093 C 294.266 164.043,285.973 163.395,282.691 161.892 C 272.175 157.079,270.276 140.186,279.359 132.242 C 283.483 128.635,290.950 127.114,297.581 128.532 M169.147 129.003 C 169.351 129.194,170.323 131.665,172.679 137.985 C 173.302 139.657,173.901 141.227,174.009 141.474 C 174.428 142.432,174.969 143.808,175.734 145.864 C 177.255 149.948,177.803 151.392,178.726 153.742 C 179.236 155.042,179.913 156.815,180.230 157.681 C 180.546 158.548,180.980 159.662,181.194 160.158 C 182.468 163.106,182.551 163.004,178.944 162.922 L 176.159 162.859 175.683 161.508 C 173.811 156.195,173.011 154.043,172.818 153.799 C 172.649 153.584,170.938 153.517,165.651 153.517 L 158.706 153.517 158.393 154.136 C 158.221 154.477,157.850 155.464,157.569 156.331 C 157.288 157.198,156.999 158.008,156.927 158.132 C 156.855 158.255,156.583 158.965,156.323 159.707 C 156.063 160.450,155.661 161.488,155.428 162.015 L 155.006 162.971 152.362 162.971 C 149.129 162.971,149.207 163.094,150.445 159.987 C 152.024 156.023,153.067 153.308,153.067 153.159 C 153.067 153.084,153.215 152.703,153.395 152.313 C 153.576 151.923,154.173 150.388,154.723 148.903 C 155.273 147.417,156.335 144.631,157.083 142.712 C 157.832 140.793,159.110 137.451,159.924 135.284 C 160.738 133.118,161.490 131.190,161.596 131.000 C 161.702 130.810,161.859 130.336,161.944 129.946 C 162.180 128.873,162.444 128.777,165.349 128.703 C 168.173 128.632,168.802 128.682,169.147 129.003 M95.434 129.192 C 95.588 129.479,95.667 134.538,95.667 144.048 L 95.667 158.469 103.950 158.469 C 110.093 158.469,112.304 158.539,112.504 158.739 C 112.785 159.020,112.887 161.966,112.638 162.615 C 112.429 163.159,90.159 163.159,89.951 162.615 C 89.772 162.150,89.772 129.578,89.951 129.112 C 90.178 128.521,95.113 128.592,95.434 129.192 M199.887 128.989 C 210.178 130.073,215.869 136.112,215.869 145.948 C 215.869 154.250,211.021 160.471,203.208 162.194 C 202.310 162.392,201.221 162.643,200.788 162.753 C 199.004 163.203,185.526 163.025,185.270 162.548 C 184.951 161.950,184.947 129.784,185.267 129.187 C 185.534 128.687,195.706 128.549,199.887 128.989 M234.866 129.112 C 235.127 129.793,235.013 132.294,234.709 132.546 C 234.548 132.680,233.483 132.819,232.343 132.855 L 230.270 132.921 230.231 145.864 L 230.192 158.807 232.369 158.871 C 234.960 158.948,235.058 159.042,234.957 161.344 L 234.890 162.859 227.365 162.918 C 218.885 162.985,219.480 163.122,219.474 161.099 C 219.469 158.990,219.557 158.920,222.180 158.920 L 224.423 158.920 224.423 145.864 L 224.423 132.808 222.217 132.808 C 220.802 132.808,219.914 132.711,219.741 132.538 C 219.462 132.258,219.364 129.748,219.608 129.112 C 219.815 128.571,234.658 128.571,234.866 129.112 M251.241 133.483 C 252.709 136.021,254.008 138.250,254.128 138.436 C 254.247 138.621,254.633 139.280,254.984 139.899 C 255.336 140.518,256.420 142.392,257.394 144.063 C 258.367 145.734,260.051 148.651,261.136 150.544 C 262.221 152.437,263.173 153.956,263.251 153.920 C 263.330 153.884,263.385 148.410,263.373 141.754 C 263.358 133.569,263.429 129.509,263.591 129.205 C 263.951 128.533,268.401 128.522,268.760 129.192 C 269.127 129.878,269.078 162.093,268.709 162.598 C 268.462 162.936,268.055 162.977,265.514 162.922 L 262.602 162.859 261.381 160.850 C 260.709 159.745,259.538 157.747,258.780 156.410 C 257.426 154.023,250.161 141.552,248.965 139.561 C 248.630 139.004,247.909 137.788,247.363 136.860 L 246.370 135.172 246.312 148.769 C 246.270 158.549,246.182 162.454,245.997 162.676 C 245.802 162.911,245.166 162.971,243.354 162.922 L 240.968 162.859 240.910 146.089 C 240.878 136.866,240.901 129.190,240.961 129.032 C 241.045 128.812,241.944 128.760,244.821 128.807 L 248.572 128.869 251.241 133.483 M128.141 132.915 C 121.211 134.869,117.942 143.354,120.809 151.941 C 122.986 158.459,130.866 161.204,137.235 157.664 C 144.709 153.510,144.515 137.699,136.943 133.857 C 134.655 132.696,130.495 132.251,128.141 132.915 M190.987 133.540 C 190.928 133.694,190.905 139.342,190.938 146.089 L 190.996 158.357 193.810 158.421 C 196.264 158.478,198.127 158.345,200.675 157.931 C 206.699 156.952,210.017 152.679,210.017 145.903 C 210.017 138.612,206.628 134.823,198.987 133.573 C 196.508 133.167,191.138 133.145,190.987 133.540 M165.612 134.750 C 165.541 134.865,165.069 136.070,164.563 137.429 C 164.058 138.787,163.554 140.101,163.445 140.349 C 162.757 141.904,160.334 148.707,160.419 148.846 C 160.559 149.077,170.794 149.062,170.937 148.831 C 171.000 148.729,170.129 146.222,169.002 143.259 C 167.875 140.297,166.680 137.123,166.347 136.207 C 166.014 135.290,165.683 134.634,165.612 134.750 M318.402 159.482 L 318.402 162.859 315.250 162.859 L 312.099 162.859 312.036 159.718 C 311.954 155.602,311.628 155.969,315.302 156.043 L 318.402 156.106 318.402 159.482 M334.609 159.482 L 334.609 162.859 331.475 162.922 C 327.649 162.998,327.890 163.236,327.949 159.449 C 328.009 155.621,327.653 155.970,331.418 156.043 L 334.609 156.106 334.609 159.482 M350.591 159.482 L 350.591 162.859 347.327 162.859 L 344.063 162.859 344.000 159.738 C 343.920 155.730,343.695 155.965,347.528 156.043 L 350.591 156.106 350.591 159.482 " stroke="none" fill="#040404" fill-rule="evenodd"></path><path id="path2" d="M195.533 43.924 C 194.651 44.437,194.485 45.445,194.485 50.291 L 194.485 54.901 195.271 55.500 C 197.532 57.225,198.642 53.536,197.982 46.493 C 197.787 44.409,196.686 43.254,195.533 43.924 M206.348 47.446 C 205.991 47.841,204.437 50.525,202.455 54.170 C 201.482 55.962,201.539 57.420,202.605 57.971 C 204.084 58.736,204.787 58.155,206.607 54.667 C 207.359 53.225,208.282 51.524,208.658 50.886 C 209.417 49.598,209.501 48.908,209.013 47.963 C 208.521 47.013,207.006 46.719,206.348 47.446 M213.731 56.051 C 212.988 56.422,211.956 57.005,211.438 57.345 C 210.920 57.685,210.008 58.256,209.412 58.614 C 206.986 60.072,206.415 60.695,206.415 61.886 C 206.415 63.986,208.006 64.726,210.017 63.560 C 210.574 63.237,211.334 62.797,211.705 62.581 C 216.954 59.532,217.982 58.416,217.105 56.721 C 216.369 55.297,215.558 55.136,213.731 56.051 M173.168 66.407 C 170.680 67.409,171.313 71.573,174.036 72.117 C 174.958 72.302,180.852 72.296,182.213 72.110 C 185.110 71.713,185.906 68.305,183.478 66.688 C 182.659 66.143,174.385 65.917,173.168 66.407 M183.233 66.883 C 184.829 67.780,185.106 69.751,183.815 71.041 L 183.050 71.806 178.402 71.806 C 174.623 71.806,173.626 71.740,173.072 71.454 C 171.304 70.540,171.463 67.638,173.333 66.692 C 174.396 66.154,182.203 66.304,183.233 66.883 M209.588 66.914 C 207.589 67.941,207.728 70.793,209.813 71.506 C 210.770 71.833,218.688 71.694,219.377 71.338 C 220.972 70.513,220.954 68.129,219.343 67.067 C 218.530 66.531,210.576 66.406,209.588 66.914 M213.923 67.777 L 215.467 67.723 214.993 68.231 C 214.420 68.846,214.399 69.049,214.897 69.145 C 215.248 69.213,215.247 69.245,214.887 69.605 C 214.385 70.108,214.977 70.290,216.780 70.188 C 217.934 70.122,218.876 69.330,217.799 69.330 C 217.344 69.330,217.339 68.907,217.793 68.733 C 218.085 68.620,218.067 68.547,217.677 68.274 C 217.094 67.866,217.282 67.530,218.092 67.530 C 219.569 67.530,220.345 69.572,219.161 70.344 C 218.773 70.597,212.637 70.849,210.620 70.695 C 210.518 70.687,210.605 70.511,210.812 70.304 C 211.123 69.992,211.267 69.975,211.634 70.204 C 211.920 70.383,212.172 70.406,212.342 70.268 C 212.487 70.150,212.808 70.009,213.056 69.953 C 213.431 69.869,213.396 69.822,212.842 69.668 C 212.383 69.541,212.151 69.568,212.088 69.757 C 212.027 69.940,211.900 69.897,211.702 69.626 C 211.540 69.404,211.455 69.146,211.513 69.051 C 211.672 68.794,212.493 68.845,212.493 69.113 C 212.493 69.267,212.654 69.260,212.967 69.092 C 213.686 68.708,213.217 68.476,211.553 68.395 C 209.822 68.311,209.514 68.475,210.202 69.116 C 210.794 69.668,210.803 69.759,210.298 70.142 C 209.317 70.887,208.920 70.468,209.066 68.837 C 209.171 67.652,209.582 67.460,211.480 67.712 C 211.975 67.777,213.075 67.807,213.923 67.777 M218.685 68.875 C 218.521 69.392,218.726 69.850,219.036 69.658 C 219.307 69.491,219.308 68.720,219.037 68.553 C 218.922 68.481,218.764 68.627,218.685 68.875 M216.995 69.031 C 216.995 69.604,216.235 69.999,215.833 69.635 C 215.223 69.083,215.324 68.880,216.207 68.880 C 216.640 68.880,216.995 68.948,216.995 69.031 M182.762 74.131 C 181.370 74.865,176.514 77.849,175.634 78.511 C 172.499 80.872,175.845 84.853,179.264 82.829 C 186.181 78.734,186.739 78.261,186.686 76.544 C 186.613 74.149,184.820 73.047,182.762 74.131 M185.724 74.715 C 187.177 76.169,186.613 78.107,184.356 79.414 C 183.799 79.736,182.505 80.535,181.482 81.190 C 177.697 83.611,176.842 83.804,175.590 82.512 C 174.141 81.017,174.630 79.372,176.951 77.936 C 177.697 77.474,179.390 76.417,180.713 75.586 C 183.600 73.774,184.607 73.599,185.724 74.715 M207.653 74.270 C 205.702 75.069,205.664 78.002,207.592 79.102 C 207.997 79.333,208.835 79.850,209.454 80.251 C 214.470 83.498,215.786 83.862,217.051 82.353 C 218.633 80.467,217.786 79.290,212.628 76.201 C 209.132 74.108,208.577 73.892,207.653 74.270 M209.409 74.880 C 209.805 75.085,210.383 75.425,210.692 75.635 C 211.002 75.846,211.913 76.424,212.718 76.920 C 216.098 79.002,216.602 79.367,216.903 79.950 C 217.880 81.838,215.928 83.314,213.906 82.217 C 211.686 81.013,209.203 79.493,207.382 78.224 C 206.049 77.295,206.853 74.653,208.509 74.522 C 208.608 74.514,209.013 74.675,209.409 74.880 M187.531 80.110 C 187.197 80.467,186.278 81.961,185.488 83.430 C 184.699 84.899,183.766 86.626,183.416 87.270 C 181.604 90.600,184.546 94.042,187.035 91.503 C 187.758 90.764,191.438 84.041,191.790 82.815 C 192.499 80.342,189.245 78.275,187.531 80.110 M202.061 79.715 C 201.566 80.003,201.013 81.239,201.013 82.059 C 201.013 82.607,201.831 84.422,203.036 86.550 C 203.317 87.046,203.994 88.278,204.540 89.288 C 205.522 91.103,206.147 91.754,206.995 91.845 C 209.593 92.126,210.714 89.953,209.343 87.292 C 205.361 79.561,204.273 78.429,202.061 79.715 M190.446 79.917 C 191.870 80.679,191.875 82.457,190.460 85.141 C 187.373 90.998,187.332 91.065,186.450 91.646 C 184.929 92.649,183.005 91.469,183.005 89.534 C 183.005 88.359,186.855 80.954,187.887 80.142 C 188.515 79.648,189.742 79.540,190.446 79.917 M204.993 80.430 C 205.263 80.701,205.777 81.480,206.136 82.161 C 207.689 85.111,208.983 87.483,209.264 87.895 C 210.253 89.345,209.076 91.615,207.335 91.615 C 206.830 91.615,205.290 90.366,205.290 89.956 C 205.290 89.812,204.874 88.987,204.367 88.122 C 202.482 84.914,201.464 82.735,201.464 81.910 C 201.463 79.969,203.628 79.061,204.993 80.430 M194.996 81.758 C 193.570 82.446,192.866 91.788,194.074 93.991 C 194.854 95.413,196.530 95.617,197.809 94.447 L 198.649 93.676 198.718 88.773 C 198.797 83.201,198.786 83.120,197.844 82.178 C 197.100 81.434,196.003 81.272,194.996 81.758 M197.729 82.628 L 198.312 83.321 198.312 88.386 L 198.312 93.450 197.654 94.108 C 196.562 95.201,195.282 94.997,194.413 93.593 C 193.854 92.690,193.848 83.892,194.405 83.055 C 195.325 81.675,196.770 81.489,197.729 82.628 M126.547 128.468 C 125.765 128.651,125.170 128.846,125.224 128.901 C 125.279 128.955,126.020 128.848,126.871 128.662 C 127.722 128.476,128.672 128.283,128.981 128.233 C 129.367 128.171,129.296 128.141,128.756 128.138 C 128.323 128.136,127.329 128.284,126.547 128.468 M130.954 128.240 C 131.234 128.294,131.639 128.292,131.854 128.236 C 132.069 128.179,131.840 128.135,131.345 128.138 C 130.850 128.140,130.674 128.186,130.954 128.240 M133.430 128.240 C 133.710 128.294,134.115 128.292,134.330 128.236 C 134.545 128.179,134.316 128.135,133.821 128.138 C 133.326 128.140,133.150 128.186,133.430 128.240 M287.563 128.443 L 286.438 128.751 287.451 128.607 C 288.008 128.528,288.970 128.392,289.589 128.304 L 290.715 128.144 289.702 128.139 C 289.145 128.137,288.182 128.273,287.563 128.443 M294.992 128.308 C 298.097 128.761,298.483 128.784,297.017 128.433 C 296.275 128.256,295.262 128.118,294.766 128.127 C 293.895 128.144,293.902 128.150,294.992 128.308 M135.172 128.497 C 135.798 128.764,137.509 129.010,137.085 128.772 C 136.899 128.667,136.292 128.519,135.734 128.443 C 135.091 128.355,134.886 128.375,135.172 128.497 M165.349 128.703 C 162.798 128.768,162.071 128.945,162.071 129.502 C 162.071 129.635,162.198 129.574,162.352 129.367 C 162.791 128.781,168.779 128.758,169.205 129.341 C 169.367 129.562,169.499 129.635,169.499 129.502 C 169.499 128.769,168.713 128.618,165.349 128.703 M89.951 129.112 C 89.772 129.578,89.772 162.150,89.951 162.615 C 90.026 162.811,90.248 162.971,90.444 162.971 C 90.756 162.971,90.752 162.936,90.418 162.690 C 90.063 162.429,90.039 161.211,90.094 145.751 L 90.152 129.094 92.684 129.030 C 94.077 128.995,95.240 128.995,95.269 129.030 C 95.298 129.065,95.374 135.729,95.438 143.838 L 95.554 158.582 103.995 158.694 L 112.437 158.807 112.564 160.720 L 112.690 162.634 112.732 160.822 C 112.791 158.275,113.516 158.469,103.950 158.469 L 95.667 158.469 95.667 144.048 C 95.667 134.538,95.588 129.479,95.434 129.192 C 95.113 128.592,90.178 128.521,89.951 129.112 M185.264 129.192 C 185.136 129.431,185.049 130.166,185.070 130.824 C 185.109 132.009,185.110 132.011,185.186 131.007 C 185.228 130.450,185.313 129.768,185.375 129.491 L 185.488 128.988 192.069 128.925 L 198.649 128.862 192.073 128.809 C 185.773 128.759,185.487 128.775,185.264 129.192 M219.608 129.112 C 219.364 129.748,219.462 132.258,219.741 132.538 C 219.914 132.711,220.802 132.808,222.217 132.808 L 224.423 132.808 224.423 145.864 L 224.423 158.920 222.180 158.920 C 219.570 158.920,219.471 158.997,219.471 161.025 C 219.471 162.513,219.624 162.974,220.114 162.964 C 220.442 162.958,220.439 162.932,220.090 162.728 C 219.597 162.441,219.517 159.799,219.990 159.406 C 220.151 159.272,221.240 159.133,222.409 159.097 L 224.536 159.032 224.536 145.864 L 224.536 132.696 222.172 132.583 L 219.809 132.470 219.809 130.782 L 219.809 129.094 227.237 129.094 L 234.665 129.094 234.665 130.782 L 234.665 132.470 232.529 132.536 C 231.354 132.572,230.320 132.673,230.232 132.761 C 229.973 133.018,234.406 132.798,234.718 132.539 C 235.013 132.294,235.122 129.778,234.866 129.112 C 234.658 128.571,219.815 128.571,219.608 129.112 M240.959 129.038 C 240.640 129.874,240.977 162.824,241.306 162.933 C 241.584 163.025,241.593 162.984,241.360 162.702 C 241.138 162.432,241.090 158.815,241.135 145.726 L 241.193 129.094 244.652 129.032 C 248.642 128.960,248.348 128.832,249.746 131.254 C 250.310 132.233,250.828 133.033,250.897 133.033 C 250.965 133.033,250.826 132.704,250.586 132.302 C 250.347 131.899,249.775 130.937,249.314 130.163 L 248.476 128.756 244.771 128.756 C 242.015 128.756,241.039 128.828,240.959 129.038 M263.596 129.195 C 263.439 129.489,263.381 133.579,263.422 141.520 L 263.482 153.405 263.536 141.463 C 263.577 132.537,263.659 129.453,263.860 129.252 C 264.088 129.024,268.400 128.830,268.595 129.038 C 268.624 129.069,268.701 136.590,268.767 145.751 L 268.886 162.409 268.939 146.018 C 268.975 135.049,268.916 129.483,268.760 129.192 C 268.405 128.529,263.951 128.532,263.596 129.195 M298.818 128.947 C 299.514 129.245,300.681 129.475,300.281 129.235 C 300.096 129.124,299.589 128.970,299.156 128.894 C 298.624 128.800,298.515 128.817,298.818 128.947 M123.917 129.327 C 123.354 129.598,123.335 129.629,123.804 129.515 C 124.442 129.359,125.159 128.993,124.817 128.998 C 124.693 129.000,124.288 129.148,123.917 129.327 M137.760 129.147 C 137.946 129.218,138.528 129.460,139.055 129.684 C 139.581 129.908,140.011 130.040,140.011 129.978 C 140.011 129.821,138.006 128.977,137.685 128.999 C 137.541 129.009,137.575 129.075,137.760 129.147 M200.567 129.181 C 200.879 129.282,201.639 129.427,202.255 129.503 C 202.960 129.589,203.166 129.572,202.809 129.457 C 202.497 129.356,201.738 129.211,201.121 129.136 C 200.416 129.049,200.211 129.066,200.567 129.181 M284.412 129.327 C 283.503 129.743,284.047 129.744,285.005 129.328 C 285.422 129.147,285.611 129.003,285.425 129.009 C 285.239 129.014,284.783 129.157,284.412 129.327 M302.055 130.018 C 302.845 130.323,303.532 130.533,303.580 130.485 C 303.681 130.384,301.128 129.423,300.821 129.447 C 300.710 129.456,301.265 129.713,302.055 130.018 M121.891 130.231 C 121.396 130.522,120.681 131.044,120.303 131.390 C 119.925 131.737,119.773 131.904,119.965 131.763 C 120.158 131.621,120.974 131.090,121.778 130.583 C 123.329 129.606,123.415 129.335,121.891 130.231 M282.386 130.178 C 280.728 131.100,280.025 131.569,280.024 131.754 C 280.023 131.855,280.338 131.714,280.724 131.439 C 281.110 131.164,281.946 130.653,282.581 130.302 C 283.217 129.952,283.635 129.668,283.512 129.671 C 283.388 129.674,282.881 129.902,282.386 130.178 M141.692 131.054 C 142.059 131.338,142.920 132.074,143.605 132.689 C 144.809 133.771,144.821 133.776,143.950 132.837 C 143.455 132.303,142.594 131.567,142.037 131.202 C 141.480 130.836,141.325 130.770,141.692 131.054 M206.209 130.643 C 206.439 130.852,208.666 131.904,208.666 131.803 C 208.666 131.676,206.517 130.557,206.273 130.557 C 206.186 130.557,206.157 130.596,206.209 130.643 M304.221 130.826 C 304.468 130.967,304.745 131.191,304.836 131.326 C 304.950 131.494,305.003 131.485,305.005 131.297 C 305.007 131.146,304.813 130.918,304.573 130.790 C 303.981 130.473,303.656 130.506,304.221 130.826 M208.891 131.973 C 208.891 132.024,209.481 132.530,210.202 133.096 C 210.922 133.662,211.955 134.715,212.497 135.436 C 213.722 137.066,214.053 137.415,213.482 136.474 C 212.540 134.921,208.891 131.344,208.891 131.973 M278.314 133.240 C 277.582 133.974,276.802 134.910,276.580 135.323 C 276.204 136.021,276.203 136.034,276.575 135.509 C 276.794 135.200,277.626 134.263,278.423 133.427 C 280.209 131.554,280.131 131.420,278.314 133.240 M305.061 132.583 C 305.061 133.016,305.107 133.194,305.164 132.977 C 305.220 132.760,305.220 132.406,305.164 132.189 C 305.107 131.972,305.061 132.150,305.061 132.583 M118.718 132.669 C 118.234 133.159,116.776 135.126,117.198 134.721 C 117.921 134.026,119.355 132.337,119.279 132.270 C 119.230 132.227,118.977 132.406,118.718 132.669 M185.137 146.764 C 185.137 154.873,185.165 158.191,185.200 154.136 C 185.234 150.082,185.234 143.447,185.200 139.392 C 185.165 135.338,185.137 138.655,185.137 146.764 M130.276 132.523 C 130.802 132.570,131.663 132.570,132.189 132.523 C 132.715 132.475,132.285 132.437,131.232 132.437 C 130.180 132.437,129.750 132.475,130.276 132.523 M289.139 132.588 C 287.926 132.823,286.798 133.215,287.267 133.239 C 287.476 133.250,287.932 133.148,288.280 133.013 C 288.629 132.877,290.028 132.690,291.390 132.595 L 293.866 132.424 291.953 132.419 C 290.900 132.416,289.634 132.493,289.139 132.588 M127.856 132.811 C 127.618 132.967,127.752 132.990,128.306 132.888 C 129.277 132.710,129.460 132.582,128.738 132.586 C 128.438 132.588,128.042 132.690,127.856 132.811 M133.934 132.814 C 134.367 132.913,134.975 133.059,135.284 133.138 C 135.648 133.232,135.580 133.159,135.090 132.933 C 134.673 132.741,134.065 132.595,133.739 132.609 C 133.229 132.631,133.256 132.660,133.934 132.814 M295.217 132.897 C 297.451 133.422,297.973 133.495,296.905 133.135 C 296.348 132.947,295.436 132.746,294.879 132.687 C 293.999 132.594,294.044 132.622,295.217 132.897 M125.718 133.629 C 124.412 134.296,122.339 136.219,121.870 137.198 C 121.692 137.569,121.675 137.675,121.831 137.433 C 122.688 136.108,124.447 134.544,125.894 133.820 C 126.759 133.387,127.326 133.038,127.155 133.044 C 126.983 133.049,126.337 133.313,125.718 133.629 M190.940 133.182 C 190.539 133.344,190.528 158.024,190.929 158.424 C 191.118 158.614,192.146 158.680,194.361 158.648 L 197.524 158.601 194.260 158.479 L 190.996 158.357 190.996 145.864 L 190.996 133.371 194.260 133.249 L 197.524 133.127 194.373 133.098 C 192.639 133.082,191.095 133.120,190.940 133.182 M136.871 133.813 C 137.435 134.107,138.447 134.830,139.122 135.421 L 140.349 136.496 139.449 135.531 C 138.595 134.617,136.557 133.253,136.072 133.271 C 135.948 133.275,136.308 133.519,136.871 133.813 M199.212 133.582 C 200.704 133.860,201.872 134.178,203.376 134.716 C 203.741 134.846,203.762 134.829,203.489 134.630 C 202.919 134.213,200.300 133.506,198.875 133.383 C 197.548 133.269,197.554 133.273,199.212 133.582 M251.792 134.778 C 252.701 136.411,253.990 138.468,253.871 138.096 C 253.738 137.678,251.164 133.258,251.054 133.258 C 250.995 133.258,251.327 133.942,251.792 134.778 M285.172 134.057 C 283.919 134.813,281.806 136.907,281.356 137.839 C 281.225 138.111,281.350 138.027,281.640 137.648 C 282.839 136.081,284.014 134.984,285.297 134.235 C 286.796 133.360,286.950 133.250,286.644 133.276 C 286.531 133.286,285.868 133.637,285.172 134.057 M298.593 133.812 C 298.965 133.978,299.724 134.299,300.281 134.528 C 300.838 134.756,301.928 135.374,302.703 135.901 C 304.108 136.857,304.644 137.042,304.883 136.656 C 304.952 136.544,304.822 136.501,304.593 136.560 C 304.343 136.626,303.687 136.326,302.946 135.808 C 302.269 135.334,301.164 134.707,300.491 134.414 C 299.819 134.122,299.093 133.793,298.878 133.683 C 298.663 133.573,298.359 133.490,298.202 133.498 C 298.046 133.506,298.222 133.647,298.593 133.812 M159.862 135.439 C 159.601 136.148,159.424 136.764,159.469 136.809 C 159.514 136.854,159.767 136.314,160.031 135.608 C 160.295 134.902,160.472 134.285,160.424 134.237 C 160.376 134.190,160.123 134.730,159.862 135.439 M171.125 134.384 C 171.778 136.195,172.712 138.449,172.780 138.381 C 172.882 138.279,171.367 134.369,171.152 134.178 C 171.070 134.106,171.058 134.198,171.125 134.384 M165.363 134.730 C 165.140 135.311,165.212 135.438,165.491 134.957 C 165.745 134.520,165.748 134.520,165.933 134.957 C 166.111 135.379,166.117 135.379,166.064 134.965 C 165.994 134.408,165.544 134.258,165.363 134.730 M230.155 144.851 C 230.155 150.670,230.184 153.082,230.219 150.212 C 230.255 147.343,230.255 142.582,230.219 139.633 C 230.184 136.684,230.155 139.032,230.155 144.851 M146.182 136.241 C 146.599 137.015,147.063 138.034,147.213 138.507 C 147.362 138.979,147.528 139.322,147.582 139.268 C 147.738 139.113,146.747 136.608,146.163 135.678 C 145.333 134.356,145.344 134.688,146.182 136.241 M205.177 135.698 C 209.208 138.265,211.131 144.388,209.713 150.141 C 209.637 150.450,209.717 150.298,209.891 149.803 C 210.728 147.423,210.242 142.031,208.961 139.484 C 208.076 137.725,204.984 134.824,204.006 134.836 C 203.908 134.837,204.434 135.225,205.177 135.698 M246.033 148.666 C 246.033 161.603,246.007 162.514,245.639 162.728 C 245.422 162.854,245.351 162.961,245.481 162.964 C 246.234 162.986,246.258 162.561,246.263 148.801 L 246.268 135.172 246.726 135.734 L 247.185 136.297 246.828 135.566 C 246.074 134.019,246.033 134.695,246.033 148.666 M116.373 135.791 C 116.128 136.193,115.927 136.615,115.927 136.729 C 115.926 136.985,115.957 136.943,116.553 135.903 C 117.145 134.869,116.993 134.774,116.373 135.791 M164.797 136.210 C 164.658 136.607,164.584 136.972,164.632 137.020 C 164.681 137.069,164.833 136.782,164.972 136.385 C 165.111 135.987,165.185 135.622,165.137 135.574 C 165.089 135.526,164.936 135.812,164.797 136.210 M166.123 135.581 C 166.123 135.873,167.778 140.007,167.862 139.923 C 167.909 139.876,167.577 138.889,167.126 137.730 C 166.344 135.724,166.123 135.251,166.123 135.581 M140.757 137.517 C 141.024 138.005,141.277 138.370,141.319 138.328 C 141.428 138.219,140.730 136.913,140.480 136.759 C 140.365 136.688,140.490 137.029,140.757 137.517 M275.397 137.331 C 275.199 137.714,275.077 138.067,275.126 138.116 C 275.175 138.165,275.383 137.852,275.589 137.420 C 276.052 136.449,275.892 136.375,275.397 137.331 M115.494 137.501 C 115.360 137.751,115.251 138.089,115.252 138.252 C 115.253 138.415,115.406 138.254,115.593 137.896 C 115.781 137.537,115.890 137.199,115.835 137.145 C 115.781 137.091,115.628 137.251,115.494 137.501 M248.353 138.548 C 248.544 138.920,248.868 139.426,249.074 139.674 C 249.279 139.921,249.220 139.719,248.942 139.223 C 248.329 138.131,247.869 137.604,248.353 138.548 M254.444 139.336 C 255.643 141.523,258.014 145.538,258.232 145.751 C 258.482 145.995,257.641 144.448,255.787 141.249 C 254.541 139.099,253.506 137.626,254.444 139.336 M141.379 138.669 C 141.369 138.736,141.561 139.344,141.804 140.020 C 142.047 140.696,142.242 141.047,142.237 140.799 C 142.230 140.392,141.418 138.381,141.379 138.669 M120.692 139.544 C 120.319 140.616,120.379 140.951,120.780 140.028 C 120.964 139.604,121.079 139.151,121.036 139.021 C 120.992 138.892,120.838 139.127,120.692 139.544 M274.197 140.635 C 273.437 143.452,273.717 153.145,274.534 152.328 C 274.587 152.275,274.477 151.584,274.291 150.792 C 273.756 148.523,273.820 142.816,274.404 140.710 C 274.656 139.799,274.820 139.011,274.769 138.959 C 274.717 138.908,274.460 139.662,274.197 140.635 M214.779 139.223 C 214.779 139.347,214.915 139.803,215.082 140.236 C 215.248 140.670,215.388 140.872,215.392 140.687 C 215.396 140.501,215.260 140.045,215.090 139.674 C 214.920 139.302,214.780 139.100,214.779 139.223 M114.704 139.915 C 114.621 140.245,114.597 140.558,114.650 140.611 C 114.703 140.664,114.814 140.438,114.897 140.108 C 114.979 139.778,115.004 139.465,114.951 139.411 C 114.898 139.358,114.787 139.585,114.704 139.915 M280.038 140.801 C 279.782 141.631,279.585 142.679,279.600 143.130 C 279.622 143.806,279.660 143.733,279.812 142.712 C 279.914 142.032,280.156 141.028,280.350 140.483 C 280.544 139.937,280.658 139.446,280.603 139.392 C 280.549 139.337,280.295 139.971,280.038 140.801 M250.090 141.531 C 250.365 141.995,252.061 144.907,253.859 148.002 C 255.657 151.097,257.275 153.782,257.454 153.967 C 257.797 154.324,257.297 153.444,252.687 145.582 C 251.108 142.890,249.766 140.687,249.703 140.687 C 249.641 140.687,249.815 141.066,250.090 141.531 M215.585 142.487 C 215.652 143.292,215.744 143.993,215.788 144.044 C 215.945 144.226,215.822 142.143,215.643 141.587 C 215.534 141.249,215.511 141.609,215.585 142.487 M114.276 142.238 C 114.193 142.654,114.136 143.209,114.150 143.472 C 114.163 143.735,114.264 143.495,114.374 142.938 C 114.483 142.380,114.540 141.825,114.500 141.703 C 114.460 141.581,114.359 141.822,114.276 142.238 M148.227 145.425 C 148.227 147.461,148.154 149.634,148.065 150.253 C 147.914 151.298,147.925 151.282,148.224 150.028 C 148.551 148.654,148.646 143.677,148.370 142.386 C 148.291 142.021,148.227 143.388,148.227 145.425 M119.887 143.185 C 119.805 143.701,119.781 144.167,119.835 144.221 C 119.889 144.275,120.004 143.900,120.090 143.388 C 120.177 142.876,120.200 142.410,120.142 142.352 C 120.085 142.294,119.970 142.669,119.887 143.185 M157.119 142.506 C 157.119 142.558,156.907 143.157,156.649 143.838 C 156.390 144.519,156.260 144.995,156.359 144.897 C 156.626 144.632,157.350 142.644,157.226 142.519 C 157.167 142.461,157.119 142.455,157.119 142.506 M174.477 143.050 C 174.481 143.174,174.680 143.680,174.918 144.176 C 175.156 144.671,175.288 144.823,175.211 144.513 C 175.052 143.876,174.465 142.706,174.477 143.050 M161.533 144.899 C 161.210 145.744,160.951 146.535,160.959 146.656 C 160.966 146.778,161.268 146.124,161.630 145.203 C 161.992 144.283,162.250 143.492,162.204 143.446 C 162.158 143.400,161.856 144.054,161.533 144.899 M169.404 144.288 C 169.621 145.105,169.936 145.640,169.935 145.189 C 169.934 145.003,169.781 144.598,169.594 144.288 L 169.255 143.725 169.404 144.288 M113.926 145.883 C 113.941 146.925,114.026 148.081,114.114 148.452 C 114.203 148.824,114.228 148.014,114.170 146.652 C 114.045 143.700,113.889 143.206,113.926 145.883 M279.419 145.639 C 279.419 146.443,279.460 146.773,279.510 146.370 C 279.560 145.968,279.560 145.310,279.510 144.907 C 279.460 144.505,279.419 144.834,279.419 145.639 M142.784 145.864 C 142.784 146.669,142.825 146.998,142.875 146.595 C 142.925 146.193,142.925 145.535,142.875 145.132 C 142.825 144.730,142.784 145.059,142.784 145.864 M155.946 145.532 C 155.876 145.776,155.751 146.179,155.667 146.427 C 155.583 146.674,155.679 146.592,155.881 146.244 C 156.082 145.896,156.208 145.494,156.160 145.350 C 156.111 145.206,156.015 145.288,155.946 145.532 M291.097 145.684 C 290.949 145.832,290.842 146.364,290.861 146.866 L 290.895 147.777 291.030 146.764 L 291.165 145.751 298.030 145.751 L 304.896 145.751 304.958 153.067 C 305.019 160.301,305.014 160.387,304.539 160.777 C 303.984 161.231,304.272 161.317,304.875 160.876 C 305.404 160.489,305.541 146.393,305.022 145.768 C 304.638 145.305,291.555 145.226,291.097 145.684 M258.458 146.201 C 258.897 147.091,262.530 153.292,262.613 153.292 C 262.670 153.292,262.674 153.216,262.622 153.123 C 261.256 150.672,258.738 146.369,258.571 146.201 C 258.422 146.051,258.384 146.051,258.458 146.201 M155.270 147.333 C 155.201 147.577,155.075 147.980,154.992 148.227 C 154.908 148.475,155.004 148.393,155.205 148.045 C 155.407 147.697,155.532 147.295,155.484 147.150 C 155.436 147.006,155.340 147.088,155.270 147.333 M176.032 147.134 C 176.029 147.275,176.227 147.832,176.472 148.372 C 176.717 148.911,176.920 149.237,176.922 149.096 C 176.925 148.955,176.727 148.398,176.482 147.858 C 176.237 147.318,176.035 146.992,176.032 147.134 M119.801 147.890 C 119.799 148.199,119.878 148.706,119.977 149.015 C 120.220 149.772,120.220 148.954,119.977 148.002 C 119.823 147.396,119.805 147.384,119.801 147.890 M142.552 148.452 C 142.553 149.071,142.597 149.298,142.649 148.956 C 142.701 148.614,142.699 148.107,142.646 147.830 C 142.592 147.553,142.550 147.833,142.552 148.452 M170.754 147.777 C 170.843 148.025,170.922 148.405,170.931 148.621 C 170.939 148.838,171.026 149.015,171.123 149.015 C 171.400 149.015,171.317 148.506,170.939 147.890 C 170.715 147.525,170.650 147.486,170.754 147.777 M279.688 148.939 C 279.919 152.197,282.137 155.868,284.801 157.400 C 285.451 157.774,285.471 157.776,284.975 157.415 C 282.051 155.291,280.372 152.543,279.812 148.969 L 279.590 147.552 279.688 148.939 M215.680 148.585 C 215.661 149.030,215.496 149.886,215.315 150.488 C 215.134 151.090,215.026 151.624,215.077 151.674 C 215.275 151.873,215.893 149.203,215.808 148.513 L 215.716 147.777 215.680 148.585 M160.118 148.475 C 159.984 148.824,160.374 149.237,160.833 149.230 C 160.957 149.228,160.885 149.126,160.673 149.002 C 160.461 148.879,160.346 148.629,160.416 148.446 C 160.486 148.264,160.479 148.115,160.400 148.115 C 160.321 148.115,160.194 148.277,160.118 148.475 M169.555 149.170 C 169.772 149.227,170.127 149.227,170.343 149.170 C 170.560 149.114,170.383 149.067,169.949 149.067 C 169.516 149.067,169.339 149.114,169.555 149.170 M154.106 150.504 C 153.907 151.089,153.783 151.607,153.830 151.654 C 153.878 151.702,154.080 151.262,154.279 150.677 C 154.478 150.093,154.602 149.575,154.555 149.528 C 154.507 149.480,154.305 149.919,154.106 150.504 M295.554 150.082 L 299.606 150.151 299.606 154.040 C 299.606 156.833,299.527 158.018,299.325 158.245 C 299.085 158.514,299.102 158.516,299.442 158.258 C 299.802 157.985,299.835 157.565,299.780 153.992 L 299.719 150.028 295.610 150.020 L 291.502 150.012 295.554 150.082 M114.607 151.266 C 114.607 151.452,114.694 151.806,114.800 152.054 C 114.922 152.338,114.994 152.379,114.994 152.167 C 114.994 151.981,114.907 151.626,114.800 151.379 C 114.678 151.095,114.607 151.053,114.607 151.266 M177.628 151.379 C 177.633 151.503,177.831 152.009,178.069 152.504 C 178.307 152.999,178.439 153.151,178.362 152.842 C 178.203 152.205,177.617 151.034,177.628 151.379 M153.298 152.488 C 152.964 153.367,153.030 153.506,153.431 152.766 C 153.622 152.414,153.722 152.071,153.654 152.003 C 153.585 151.935,153.426 152.153,153.298 152.488 M141.177 153.394 C 140.890 154.051,140.145 155.183,139.523 155.910 L 138.391 157.231 139.548 156.024 C 140.648 154.876,141.917 152.800,141.769 152.391 C 141.731 152.286,141.464 152.738,141.177 153.394 M115.041 152.848 C 115.023 153.233,116.512 156.443,116.709 156.443 C 116.777 156.443,116.566 155.915,116.238 155.268 C 115.911 154.622,115.511 153.735,115.350 153.299 C 115.189 152.862,115.050 152.659,115.041 152.848 M274.635 152.842 C 274.639 153.172,275.493 154.895,275.511 154.611 C 275.516 154.532,275.320 154.025,275.075 153.485 C 274.830 152.946,274.632 152.656,274.635 152.842 M158.370 153.792 C 158.177 154.068,158.023 154.397,158.028 154.524 C 158.033 154.651,158.188 154.477,158.373 154.136 L 158.709 153.517 165.635 153.517 C 170.721 153.517,172.632 153.589,172.831 153.787 C 173.011 153.968,173.101 153.976,173.101 153.811 C 173.101 153.020,158.923 153.002,158.370 153.792 M121.335 153.578 C 121.297 154.509,125.372 158.469,126.367 158.469 C 126.482 158.469,125.977 158.077,125.246 157.599 C 123.744 156.615,122.653 155.537,121.873 154.269 C 121.581 153.794,121.339 153.483,121.335 153.578 M263.080 154.361 C 263.211 154.702,263.632 154.632,263.760 154.248 C 263.806 154.108,263.646 154.008,263.404 154.026 C 263.137 154.046,263.010 154.177,263.080 154.361 M206.594 155.123 L 205.627 156.053 206.581 155.332 C 207.493 154.641,207.925 154.192,207.676 154.192 C 207.613 154.192,207.125 154.611,206.594 155.123 M213.275 155.105 C 213.079 155.483,212.190 156.568,211.299 157.517 C 210.408 158.465,209.987 158.993,210.363 158.690 C 211.637 157.664,214.206 154.418,213.744 154.418 C 213.681 154.418,213.470 154.727,213.275 155.105 M145.898 156.080 C 145.515 156.758,144.571 158.003,143.800 158.848 C 142.475 160.298,142.463 160.320,143.583 159.257 C 144.760 158.140,146.916 155.170,146.704 154.958 C 146.643 154.897,146.281 155.402,145.898 156.080 M258.771 156.387 C 260.655 159.766,262.597 162.829,262.915 162.923 C 263.188 163.004,263.182 162.964,262.887 162.716 C 262.522 162.409,261.589 160.898,259.326 156.950 C 258.669 155.805,258.085 154.868,258.028 154.868 C 257.971 154.868,258.305 155.551,258.771 156.387 M275.963 155.753 C 276.211 156.240,276.511 156.698,276.630 156.771 C 276.748 156.844,276.589 156.446,276.276 155.886 C 275.577 154.635,275.342 154.535,275.963 155.753 M179.533 156.218 C 179.615 156.528,179.777 156.933,179.892 157.119 C 180.037 157.353,180.054 157.285,179.950 156.894 C 179.867 156.584,179.705 156.179,179.591 155.993 C 179.446 155.759,179.428 155.827,179.533 156.218 M151.753 156.566 C 151.609 156.881,151.495 157.262,151.500 157.411 C 151.505 157.560,151.658 157.337,151.841 156.916 C 152.226 156.030,152.144 155.706,151.753 156.566 M312.088 156.279 C 311.830 156.952,312.095 162.821,312.386 162.880 C 312.544 162.912,312.569 162.886,312.442 162.823 C 312.301 162.753,312.212 161.455,312.212 159.464 L 312.212 156.218 315.232 156.218 C 317.070 156.218,318.297 156.309,318.366 156.449 C 318.429 156.576,318.455 156.551,318.423 156.393 C 318.337 155.967,312.249 155.858,312.088 156.279 M328.112 156.168 C 327.931 156.461,327.884 162.428,328.061 162.714 C 328.149 162.856,328.391 162.960,328.601 162.945 C 328.938 162.922,328.935 162.907,328.581 162.815 C 328.218 162.720,328.187 162.419,328.244 159.521 L 328.306 156.331 331.345 156.331 L 334.384 156.331 334.447 159.368 C 334.503 162.061,334.465 162.439,334.109 162.708 C 333.732 162.994,333.735 163.007,334.159 162.932 C 334.585 162.857,334.609 162.676,334.609 159.479 L 334.609 156.106 331.418 156.043 C 329.663 156.009,328.176 156.065,328.112 156.168 M344.202 156.299 C 343.690 156.916,343.968 162.836,344.513 162.932 C 344.937 163.007,344.940 162.994,344.563 162.708 C 344.207 162.439,344.169 162.061,344.225 159.368 L 344.288 156.331 347.327 156.331 L 350.366 156.331 350.429 159.368 C 350.485 162.061,350.447 162.439,350.091 162.708 C 349.714 162.994,349.717 163.007,350.141 162.932 C 350.567 162.857,350.591 162.676,350.591 159.479 L 350.591 156.106 347.528 156.043 C 345.106 155.994,344.411 156.047,344.202 156.299 M157.029 157.267 C 156.828 157.857,156.752 158.242,156.860 158.123 C 157.110 157.848,157.600 156.400,157.483 156.282 C 157.434 156.234,157.230 156.677,157.029 157.267 M117.307 157.344 C 118.468 159.106,122.029 162.071,122.984 162.071 C 123.120 162.071,122.586 161.691,121.798 161.227 C 120.319 160.355,118.809 159.023,117.525 157.456 C 116.864 156.649,116.841 156.638,117.307 157.344 M137.113 157.730 C 136.571 158.056,135.508 158.510,134.749 158.737 C 133.759 159.035,133.607 159.123,134.210 159.051 C 135.173 158.935,137.630 157.885,138.010 157.427 C 138.358 157.007,138.253 157.043,137.113 157.730 M180.096 157.794 C 180.095 158.118,180.730 159.407,180.746 159.114 C 180.750 159.036,180.606 158.630,180.425 158.214 C 180.244 157.797,180.096 157.608,180.096 157.794 M201.351 157.794 C 201.067 157.916,201.025 157.987,201.238 157.987 C 201.424 157.987,201.778 157.900,202.026 157.794 C 202.310 157.672,202.351 157.601,202.138 157.601 C 201.953 157.601,201.598 157.688,201.351 157.794 M150.387 160.156 C 149.492 162.403,149.405 162.971,149.956 162.971 C 150.119 162.971,150.123 162.881,149.968 162.690 C 149.808 162.492,149.999 161.748,150.614 160.174 C 151.094 158.945,151.452 157.905,151.410 157.862 C 151.367 157.820,150.907 158.852,150.387 160.156 M200.265 157.942 C 200.191 158.016,199.544 158.152,198.827 158.244 L 197.524 158.410 198.649 158.417 C 199.957 158.426,201.012 158.184,200.648 157.959 C 200.512 157.875,200.340 157.867,200.265 157.942 M287.156 158.579 C 287.551 158.761,288.311 158.963,288.844 159.027 L 289.814 159.144 288.689 158.846 C 288.070 158.682,287.310 158.480,287.001 158.398 C 286.611 158.295,286.659 158.351,287.156 158.579 M156.263 159.302 C 156.123 159.760,156.045 160.172,156.091 160.217 C 156.136 160.263,156.295 159.932,156.443 159.482 C 156.592 159.032,156.670 158.620,156.616 158.567 C 156.563 158.513,156.404 158.844,156.263 159.302 M278.784 159.258 C 280.575 160.913,284.396 162.974,285.650 162.960 C 285.836 162.958,285.100 162.619,284.015 162.206 C 282.131 161.489,280.764 160.685,278.784 159.132 L 277.884 158.425 278.784 159.258 M127.856 158.943 C 128.165 159.085,129.533 159.230,130.895 159.265 L 133.371 159.329 131.007 159.158 C 129.707 159.063,128.340 158.918,127.968 158.835 C 127.317 158.689,127.313 158.693,127.856 158.943 M174.702 158.807 C 174.706 158.931,174.905 159.437,175.143 159.932 C 175.381 160.428,175.513 160.580,175.436 160.270 C 175.277 159.633,174.690 158.463,174.702 158.807 M230.230 158.956 C 230.317 159.038,231.371 159.140,232.572 159.181 C 233.773 159.223,234.685 159.188,234.598 159.103 C 234.511 159.019,233.457 158.917,232.256 158.878 C 231.054 158.839,230.142 158.874,230.230 158.956 M296.005 158.920 L 294.992 159.077 295.892 159.084 C 296.387 159.088,297.096 159.014,297.468 158.920 C 298.368 158.690,297.478 158.690,296.005 158.920 M291.109 159.311 C 291.820 159.356,292.985 159.356,293.697 159.311 C 294.409 159.266,293.827 159.230,292.403 159.230 C 290.979 159.230,290.397 159.266,291.109 159.311 M207.428 160.403 C 206.685 160.818,206.157 161.161,206.254 161.164 C 206.546 161.175,208.624 160.071,208.776 159.824 C 208.952 159.539,209.038 159.502,207.428 160.403 M234.821 161.095 C 234.793 162.140,234.679 162.749,234.496 162.822 C 234.276 162.911,234.277 162.940,234.503 162.954 C 234.934 162.980,235.035 162.516,234.945 160.922 L 234.864 159.482 234.821 161.095 M181.242 160.732 C 181.374 161.110,181.523 161.377,181.574 161.326 C 181.686 161.214,181.261 160.045,181.109 160.045 C 181.050 160.045,181.110 160.354,181.242 160.732 M141.362 160.859 C 140.929 161.171,140.190 161.584,139.721 161.777 C 139.251 161.970,138.911 162.171,138.964 162.224 C 139.119 162.379,140.960 161.448,141.699 160.841 C 142.576 160.121,142.372 160.132,141.362 160.859 M204.389 161.733 C 203.956 161.900,203.754 162.040,203.939 162.044 C 204.125 162.047,204.581 161.911,204.952 161.741 C 205.822 161.343,205.417 161.337,204.389 161.733 M302.082 161.733 C 301.649 161.900,301.446 162.040,301.632 162.044 C 301.818 162.047,302.273 161.911,302.645 161.741 C 303.514 161.343,303.110 161.337,302.082 161.733 M175.820 161.804 C 175.793 162.243,176.231 162.971,176.520 162.971 C 176.671 162.971,176.635 162.814,176.429 162.577 C 176.240 162.361,176.030 162.032,175.962 161.846 C 175.876 161.613,175.832 161.600,175.820 161.804 M181.780 162.043 C 181.875 162.385,181.818 162.647,181.622 162.771 C 181.387 162.920,181.384 162.965,181.605 162.968 C 182.025 162.973,182.182 162.387,181.888 161.916 C 181.666 161.561,181.652 161.577,181.780 162.043 M137.648 162.642 C 137.085 162.913,137.066 162.944,137.535 162.829 C 138.173 162.673,138.890 162.308,138.548 162.313 C 138.424 162.315,138.019 162.463,137.648 162.642 M200.225 162.660 C 199.232 163.009,199.203 163.011,201.801 162.522 L 202.701 162.352 201.913 162.348 C 201.480 162.345,200.720 162.486,200.225 162.660 M298.593 162.746 L 298.143 162.940 298.593 162.952 C 298.841 162.959,299.195 162.866,299.381 162.746 C 299.828 162.457,299.266 162.457,298.593 162.746 M198.143 162.901 C 198.360 162.958,198.714 162.958,198.931 162.901 C 199.147 162.845,198.970 162.798,198.537 162.798 C 198.104 162.798,197.926 162.845,198.143 162.901 M126.168 163.186 C 126.600 163.382,127.805 163.509,127.612 163.339 C 127.560 163.293,127.113 163.194,126.618 163.119 C 125.990 163.023,125.854 163.044,126.168 163.186 M135.397 163.196 L 134.947 163.390 135.397 163.383 C 135.644 163.380,136.100 163.296,136.410 163.196 L 136.972 163.016 136.410 163.010 C 136.100 163.006,135.644 163.090,135.397 163.196 M286.775 163.196 C 287.085 163.296,287.541 163.377,287.788 163.377 C 288.145 163.377,288.121 163.339,287.676 163.196 C 287.366 163.097,286.911 163.016,286.663 163.016 C 286.306 163.016,286.330 163.054,286.775 163.196 M296.680 163.196 C 296.234 163.339,296.211 163.377,296.567 163.377 C 296.815 163.377,297.271 163.296,297.580 163.196 C 298.026 163.054,298.049 163.016,297.693 163.016 C 297.445 163.016,296.989 163.097,296.680 163.196 " stroke="none" fill="#545454" fill-rule="evenodd"></path><path id="path3" d="M172.635 67.321 C 171.517 68.518,171.584 70.167,172.791 71.148 C 173.034 71.345,172.977 71.182,172.642 70.725 C 171.362 68.977,172.340 66.950,174.540 66.794 L 175.689 66.712 174.485 66.671 C 173.406 66.633,173.215 66.700,172.635 67.321 M178.906 66.796 C 179.684 66.840,180.900 66.840,181.607 66.795 C 182.314 66.751,181.677 66.715,180.191 66.715 C 178.706 66.716,178.127 66.752,178.906 66.796 M183.554 67.386 C 184.061 67.792,184.251 68.172,184.368 69.016 L 184.521 70.118 184.551 69.179 C 184.581 68.221,183.759 66.853,183.154 66.855 C 183.010 66.856,183.190 67.095,183.554 67.386 M183.469 71.087 C 183.012 71.405,182.145 71.489,178.292 71.590 L 173.663 71.712 178.165 71.758 C 182.599 71.804,184.131 71.557,184.131 70.797 C 184.131 70.636,184.091 70.654,183.469 71.087 M179.629 76.329 C 175.248 79.004,174.902 79.327,174.902 80.733 C 174.902 82.470,176.781 83.871,178.041 83.073 C 178.254 82.939,178.042 82.911,177.433 82.992 C 176.090 83.172,175.127 82.216,175.127 80.704 C 175.127 79.492,175.559 78.986,177.586 77.833 C 178.276 77.441,179.847 76.481,181.077 75.701 C 184.329 73.638,186.156 73.972,186.156 76.627 C 186.156 77.914,185.826 78.230,182.140 80.470 C 179.155 82.283,178.320 82.836,178.569 82.836 C 178.660 82.836,179.265 82.493,179.913 82.074 C 180.561 81.655,182.132 80.682,183.403 79.911 C 186.427 78.078,187.231 76.555,185.971 75.047 C 184.704 73.532,183.963 73.682,179.629 76.329 M207.645 75.323 C 207.126 75.804,207.057 76.009,207.174 76.717 C 207.249 77.173,207.312 77.665,207.313 77.809 C 207.315 77.954,207.797 78.250,208.385 78.467 C 208.973 78.685,209.665 79.114,209.922 79.421 C 210.282 79.851,210.521 79.945,210.965 79.834 C 211.434 79.716,211.566 79.782,211.672 80.190 C 211.776 80.586,211.860 80.632,212.080 80.413 C 212.496 79.997,212.717 80.076,212.728 80.642 C 212.736 81.113,213.982 82.161,214.534 82.161 C 214.973 82.161,214.721 81.514,214.255 81.445 C 213.607 81.350,213.481 80.899,214.059 80.748 C 214.594 80.608,214.682 80.135,214.174 80.135 C 213.985 80.135,213.768 79.976,213.693 79.781 C 213.605 79.550,213.389 79.468,213.074 79.548 C 212.575 79.673,211.904 78.966,212.148 78.571 C 212.319 78.294,213.114 78.543,213.258 78.919 C 213.326 79.096,213.686 79.235,214.075 79.235 C 214.457 79.235,214.712 79.329,214.641 79.444 C 214.442 79.767,214.933 79.968,215.545 79.814 C 216.201 79.650,216.279 79.235,215.655 79.235 C 215.413 79.235,214.976 79.007,214.684 78.728 C 214.392 78.450,213.855 78.047,213.492 77.834 C 213.128 77.621,212.679 77.347,212.493 77.226 C 212.307 77.104,211.750 76.825,211.256 76.605 C 210.761 76.385,210.153 75.991,209.905 75.730 C 209.036 74.816,208.330 74.688,207.645 75.323 M208.891 76.308 C 208.891 76.432,209.069 76.537,209.285 76.541 C 210.070 76.555,210.467 77.066,210.165 77.673 C 209.793 78.419,209.286 78.363,209.018 77.546 C 208.726 76.655,208.676 76.604,208.452 76.967 C 208.244 77.304,207.541 77.143,207.541 76.758 C 207.541 76.627,207.769 76.427,208.047 76.315 C 208.726 76.043,208.891 76.041,208.891 76.308 M211.751 77.608 C 211.504 77.881,211.457 78.112,211.601 78.339 C 211.859 78.749,211.861 78.818,211.614 79.208 C 211.446 79.473,211.312 79.473,210.717 79.209 C 209.883 78.840,209.856 78.737,210.523 78.444 C 210.802 78.322,211.062 77.994,211.102 77.715 C 211.150 77.375,211.328 77.209,211.643 77.209 C 212.078 77.209,212.086 77.238,211.751 77.608 M189.408 79.907 C 191.067 80.227,191.854 82.011,190.996 83.512 C 190.819 83.821,190.675 84.176,190.676 84.299 C 190.677 84.423,190.871 84.170,191.109 83.737 C 192.111 81.906,191.082 79.649,189.274 79.711 L 188.520 79.737 189.408 79.907 M202.593 80.199 C 201.036 80.987,201.165 82.087,203.260 85.875 C 203.671 86.618,204.405 87.959,204.892 88.856 C 205.992 90.882,206.688 91.478,207.752 91.305 C 210.106 90.923,210.017 89.477,207.339 84.637 C 204.752 79.960,204.160 79.406,202.593 80.199 M215.996 80.673 C 216.145 81.269,215.768 81.681,215.562 81.147 C 215.342 80.573,214.969 80.777,214.969 81.470 C 214.969 82.631,216.165 82.616,216.790 81.448 C 217.058 80.948,216.690 80.135,216.195 80.135 C 215.955 80.135,215.899 80.287,215.996 80.673 M186.269 82.611 C 186.077 82.983,185.970 83.286,186.032 83.286 C 186.094 83.286,186.302 82.983,186.494 82.611 C 186.686 82.240,186.793 81.936,186.731 81.936 C 186.669 81.936,186.461 82.240,186.269 82.611 M195.720 82.174 C 194.403 82.557,194.260 83.161,194.260 88.351 C 194.260 94.006,194.789 95.327,196.751 94.577 C 198.146 94.044,198.349 92.377,198.095 83.550 C 198.085 83.211,196.868 81.925,196.585 81.956 C 196.482 81.967,196.093 82.065,195.720 82.174 M185.049 84.862 C 184.662 85.605,184.397 86.213,184.459 86.213 C 184.570 86.213,185.432 84.676,185.753 83.905 C 186.111 83.045,185.713 83.586,185.049 84.862 M190.096 85.312 C 189.904 85.684,189.797 85.988,189.859 85.988 C 189.921 85.988,190.129 85.684,190.321 85.312 C 190.513 84.941,190.619 84.637,190.557 84.637 C 190.496 84.637,190.288 84.941,190.096 85.312 M188.670 87.938 C 188.154 88.888,187.766 89.698,187.807 89.739 C 187.848 89.781,188.304 89.038,188.820 88.089 C 189.336 87.139,189.724 86.329,189.683 86.288 C 189.642 86.246,189.186 86.989,188.670 87.938 M183.238 88.224 C 183.110 88.463,183.019 89.046,183.035 89.518 L 183.065 90.377 183.210 89.364 C 183.289 88.807,183.434 88.225,183.531 88.070 C 183.628 87.915,183.654 87.788,183.589 87.788 C 183.524 87.788,183.366 87.984,183.238 88.224 M186.959 90.884 C 186.473 91.505,186.434 91.610,186.811 91.280 C 187.262 90.886,187.858 90.039,187.684 90.039 C 187.648 90.039,187.322 90.419,186.959 90.884 M184.789 91.926 C 185.075 92.053,185.437 92.053,185.723 91.926 C 186.102 91.756,186.015 91.717,185.256 91.717 C 184.497 91.717,184.410 91.756,184.789 91.926 M130.954 128.465 C 131.234 128.519,131.639 128.517,131.854 128.461 C 132.069 128.404,131.840 128.360,131.345 128.363 C 130.850 128.365,130.674 128.411,130.954 128.465 M294.035 128.461 C 294.252 128.518,294.606 128.518,294.823 128.461 C 295.039 128.405,294.862 128.358,294.429 128.358 C 293.995 128.358,293.818 128.405,294.035 128.461 M125.492 128.981 C 125.209 129.103,125.167 129.175,125.380 129.175 C 125.566 129.175,125.920 129.088,126.168 128.981 C 126.451 128.859,126.493 128.788,126.280 128.788 C 126.095 128.788,125.740 128.875,125.492 128.981 M136.185 128.981 C 136.954 129.228,137.546 129.228,136.972 128.981 C 136.725 128.875,136.320 128.791,136.072 128.795 C 135.710 128.800,135.732 128.837,136.185 128.981 M286.213 128.981 C 285.639 129.228,286.231 129.228,287.001 128.981 C 287.453 128.837,287.475 128.800,287.113 128.795 C 286.866 128.791,286.460 128.875,286.213 128.981 M297.805 128.981 C 298.575 129.228,299.167 129.228,298.593 128.981 C 298.346 128.875,297.940 128.791,297.693 128.795 C 297.331 128.800,297.353 128.837,297.805 128.981 M90.264 129.150 C 90.264 129.243,91.369 129.319,92.719 129.319 C 94.069 129.319,95.127 129.243,95.069 129.150 C 95.012 129.057,93.907 128.981,92.615 128.981 C 91.322 128.981,90.264 129.057,90.264 129.150 M164.266 129.149 C 165.163 129.191,166.632 129.191,167.530 129.149 C 168.427 129.106,167.693 129.071,165.898 129.071 C 164.102 129.071,163.368 129.106,164.266 129.149 M185.526 129.252 C 185.320 129.458,185.269 133.415,185.310 145.965 L 185.364 162.409 185.479 145.864 L 185.594 129.319 192.122 129.201 L 198.649 129.084 192.223 129.033 C 187.466 128.995,185.726 129.052,185.526 129.252 M219.969 129.248 C 219.616 129.602,219.614 131.961,219.966 132.313 C 220.145 132.492,220.961 132.568,222.386 132.539 L 224.536 132.496 222.285 132.371 L 220.034 132.245 220.034 130.782 L 220.034 129.319 227.237 129.319 L 234.440 129.319 234.440 130.782 L 234.440 132.245 232.302 132.371 L 230.163 132.497 232.354 132.540 C 234.874 132.589,234.864 132.598,234.735 130.320 L 234.665 129.094 227.454 129.035 C 222.033 128.990,220.175 129.043,219.969 129.248 M241.184 129.263 C 240.908 129.987,241.197 162.597,241.480 162.654 C 241.638 162.686,241.663 162.661,241.536 162.598 C 241.382 162.521,241.306 156.983,241.306 145.845 L 241.306 129.207 244.802 129.207 L 248.299 129.207 248.764 129.994 C 249.277 130.865,249.577 131.076,249.163 130.276 C 248.497 128.988,248.474 128.981,244.753 128.981 C 242.191 128.981,241.264 129.055,241.184 129.263 M263.965 129.131 C 263.883 129.214,263.817 129.391,263.819 129.525 C 263.821 129.660,263.907 129.635,264.011 129.472 C 264.152 129.250,264.749 129.193,266.350 129.247 C 267.533 129.286,268.454 129.243,268.396 129.150 C 268.266 128.942,264.173 128.924,263.965 129.131 M138.210 129.507 C 138.210 129.565,138.537 129.727,138.937 129.866 C 139.336 130.005,139.564 130.026,139.443 129.913 C 139.187 129.673,138.210 129.351,138.210 129.507 M162.096 130.132 C 161.957 130.530,161.883 130.895,161.931 130.943 C 161.979 130.991,162.132 130.705,162.271 130.307 C 162.410 129.909,162.484 129.544,162.436 129.496 C 162.387 129.448,162.235 129.734,162.096 130.132 M95.326 144.176 L 95.329 158.807 103.770 158.920 L 112.212 159.032 112.278 160.700 C 112.326 161.876,112.259 162.430,112.053 162.575 C 111.828 162.734,111.838 162.760,112.099 162.689 C 112.571 162.561,112.708 159.332,112.257 158.957 C 112.040 158.777,109.486 158.682,103.751 158.641 L 95.554 158.582 95.438 144.063 L 95.323 129.544 95.326 144.176 M202.382 129.737 C 202.434 129.781,202.831 129.882,203.264 129.962 C 203.818 130.063,203.952 130.041,203.714 129.885 C 203.409 129.685,202.159 129.546,202.382 129.737 M90.146 145.976 C 90.146 154.890,90.174 158.504,90.208 154.007 C 90.242 149.510,90.242 142.217,90.208 137.800 C 90.174 133.383,90.146 137.062,90.146 145.976 M121.947 130.461 C 121.106 130.917,121.157 131.107,122.003 130.670 C 122.375 130.478,122.679 130.272,122.679 130.214 C 122.679 130.069,122.654 130.077,121.947 130.461 M140.687 130.613 C 140.748 130.683,141.424 131.199,142.189 131.761 C 142.953 132.322,144.004 133.345,144.523 134.033 C 145.665 135.545,145.967 135.704,144.921 134.242 C 144.093 133.084,142.449 131.567,141.315 130.914 C 140.907 130.679,140.625 130.544,140.687 130.613 M280.329 131.766 C 279.603 132.307,278.655 133.140,278.222 133.617 C 277.644 134.254,277.764 134.183,278.672 133.349 C 279.353 132.725,280.341 131.929,280.867 131.580 C 281.736 131.005,281.979 130.782,281.736 130.782 C 281.687 130.782,281.054 131.225,280.329 131.766 M206.659 131.091 C 206.891 131.299,208.216 131.908,208.216 131.807 C 208.216 131.677,206.968 131.007,206.727 131.007 C 206.638 131.007,206.608 131.045,206.659 131.091 M170.078 132.133 C 170.161 132.442,170.323 132.847,170.438 133.033 C 170.583 133.268,170.600 133.199,170.496 132.808 C 170.413 132.499,170.251 132.093,170.136 131.908 C 169.991 131.673,169.974 131.742,170.078 132.133 M130.276 132.298 C 130.802 132.345,131.663 132.345,132.189 132.298 C 132.715 132.250,132.285 132.211,131.232 132.211 C 130.180 132.211,129.750 132.250,130.276 132.298 M290.890 132.299 C 291.482 132.345,292.394 132.345,292.916 132.297 C 293.439 132.250,292.954 132.212,291.840 132.213 C 290.726 132.213,290.298 132.252,290.890 132.299 M210.355 133.483 C 210.838 133.979,211.284 134.384,211.346 134.384 C 211.408 134.384,211.063 133.979,210.580 133.483 C 210.096 132.988,209.650 132.583,209.588 132.583 C 209.526 132.583,209.871 132.988,210.355 133.483 M287.338 132.808 C 287.054 132.930,287.013 133.002,287.226 133.002 C 287.411 133.002,287.766 132.915,288.014 132.808 C 288.297 132.686,288.339 132.615,288.126 132.615 C 287.940 132.615,287.586 132.702,287.338 132.808 M118.376 133.427 C 117.660 134.220,117.196 134.834,117.314 134.834 C 117.364 134.834,117.787 134.378,118.253 133.821 C 119.182 132.709,119.266 132.444,118.376 133.427 M190.805 132.977 C 190.747 133.070,191.729 133.119,192.986 133.086 C 197.124 132.979,197.575 132.892,194.217 132.850 C 192.398 132.827,190.863 132.884,190.805 132.977 M224.703 145.912 L 224.648 159.128 222.454 159.202 L 220.259 159.276 222.461 159.323 C 224.051 159.357,224.692 159.292,224.770 159.088 C 224.829 158.934,224.851 152.932,224.817 145.751 L 224.757 132.696 224.703 145.912 M198.033 133.192 C 198.313 133.246,198.718 133.244,198.933 133.188 C 199.149 133.132,198.920 133.087,198.424 133.090 C 197.929 133.092,197.753 133.139,198.033 133.192 M190.538 145.751 C 190.538 152.560,190.567 155.379,190.602 152.014 C 190.637 148.649,190.637 143.078,190.602 139.633 C 190.567 136.189,190.538 138.942,190.538 145.751 M298.931 133.671 C 299.116 133.785,299.522 133.947,299.831 134.030 C 300.222 134.134,300.291 134.117,300.056 133.972 C 299.871 133.857,299.465 133.695,299.156 133.612 C 298.765 133.508,298.696 133.526,298.931 133.671 M251.322 134.384 C 251.515 134.755,251.722 135.059,251.784 135.059 C 251.846 135.059,251.740 134.755,251.548 134.384 C 251.355 134.012,251.148 133.708,251.086 133.708 C 251.024 133.708,251.130 134.012,251.322 134.384 M123.673 134.738 L 122.791 135.542 123.748 134.813 C 124.622 134.146,124.835 133.934,124.630 133.934 C 124.588 133.934,124.158 134.295,123.673 134.738 M283.822 134.851 L 282.836 135.769 283.905 134.916 C 284.494 134.447,284.975 134.034,284.975 133.998 C 284.975 133.825,284.729 134.007,283.822 134.851 M139.223 135.284 C 139.833 135.903,140.383 136.410,140.445 136.410 C 140.506 136.410,140.058 135.903,139.449 135.284 C 138.839 134.665,138.289 134.159,138.227 134.159 C 138.165 134.159,138.614 134.665,139.223 135.284 M245.719 134.740 C 245.501 135.309,245.574 135.435,245.848 134.962 C 246.089 134.548,246.126 134.559,246.653 135.187 L 247.206 135.847 246.796 135.115 C 246.351 134.322,245.935 134.177,245.719 134.740 M252.441 136.297 C 252.787 136.916,253.175 137.524,253.303 137.648 C 253.430 137.772,253.252 137.366,252.905 136.747 C 252.559 136.128,252.171 135.521,252.043 135.397 C 251.916 135.273,252.094 135.678,252.441 136.297 M146.385 137.070 C 146.776 137.928,147.134 138.591,147.181 138.544 C 147.285 138.440,145.933 135.509,145.781 135.509 C 145.723 135.509,145.994 136.211,146.385 137.070 M122.301 136.241 C 122.050 136.519,121.765 136.899,121.666 137.085 C 121.476 137.443,121.528 137.394,122.440 136.353 C 122.738 136.013,122.932 135.734,122.870 135.734 C 122.808 135.734,122.552 135.962,122.301 136.241 M171.541 136.072 C 171.541 136.196,171.686 136.550,171.863 136.860 C 172.040 137.169,172.184 137.321,172.184 137.198 C 172.184 137.074,172.040 136.719,171.863 136.410 C 171.686 136.100,171.541 135.948,171.541 136.072 M247.167 136.072 C 247.167 136.196,247.375 136.550,247.628 136.860 C 247.934 137.234,248.011 137.271,247.856 136.972 C 247.477 136.238,247.165 135.831,247.167 136.072 M166.815 136.860 C 166.814 137.184,167.449 138.473,167.465 138.180 C 167.470 138.101,167.325 137.696,167.144 137.280 C 166.964 136.863,166.815 136.674,166.815 136.860 M207.091 136.783 C 207.091 136.906,207.369 137.252,207.710 137.552 L 208.329 138.098 207.766 137.423 C 207.456 137.051,207.178 136.705,207.147 136.654 C 207.116 136.602,207.091 136.660,207.091 136.783 M245.862 149.510 C 245.811 161.395,245.780 162.289,245.414 162.503 C 245.043 162.719,245.043 162.733,245.409 162.739 C 246.032 162.750,246.048 162.373,245.980 149.240 L 245.916 136.747 245.862 149.510 M248.396 138.210 C 248.588 138.582,248.796 138.886,248.858 138.886 C 248.920 138.886,248.813 138.582,248.621 138.210 C 248.429 137.839,248.221 137.535,248.160 137.535 C 248.098 137.535,248.204 137.839,248.396 138.210 M172.463 138.447 C 172.595 138.825,172.744 139.092,172.795 139.041 C 172.907 138.930,172.482 137.760,172.330 137.760 C 172.272 137.760,172.331 138.069,172.463 138.447 M208.688 138.985 C 208.948 139.426,209.204 139.786,209.257 139.786 C 209.417 139.786,208.686 138.475,208.442 138.324 C 208.318 138.247,208.428 138.544,208.688 138.985 M167.602 138.886 C 167.685 139.195,167.847 139.600,167.961 139.786 C 168.106 140.021,168.124 139.952,168.020 139.561 C 167.937 139.252,167.775 138.846,167.660 138.661 C 167.515 138.426,167.498 138.495,167.602 138.886 M274.749 139.465 C 274.666 139.794,274.642 140.108,274.695 140.161 C 274.748 140.214,274.859 139.987,274.942 139.658 C 275.025 139.328,275.049 139.014,274.996 138.961 C 274.943 138.908,274.832 139.135,274.749 139.465 M280.236 139.480 C 280.112 139.806,280.052 140.115,280.103 140.167 C 280.154 140.218,280.303 139.950,280.435 139.573 C 280.728 138.733,280.551 138.651,280.236 139.480 M254.699 140.236 C 254.891 140.608,255.099 140.912,255.161 140.912 C 255.223 140.912,255.116 140.608,254.924 140.236 C 254.732 139.865,254.524 139.561,254.462 139.561 C 254.400 139.561,254.507 139.865,254.699 140.236 M162.965 140.474 C 162.828 140.728,162.750 141.037,162.791 141.159 C 162.832 141.281,162.982 141.073,163.124 140.696 C 163.420 139.913,163.331 139.789,162.965 140.474 M173.230 140.461 C 173.313 140.771,173.474 141.176,173.589 141.362 C 173.734 141.597,173.752 141.528,173.647 141.137 C 173.564 140.827,173.403 140.422,173.288 140.236 C 173.143 140.002,173.125 140.070,173.230 140.461 M209.377 140.124 C 209.376 140.248,209.512 140.703,209.679 141.137 C 209.846 141.570,209.986 141.773,209.990 141.587 C 209.993 141.401,209.857 140.945,209.687 140.574 C 209.517 140.203,209.378 140.000,209.377 140.124 M255.817 142.150 C 256.164 142.769,256.552 143.376,256.679 143.500 C 256.807 143.624,256.628 143.219,256.282 142.600 C 255.935 141.981,255.548 141.373,255.420 141.249 C 255.292 141.125,255.471 141.531,255.817 142.150 M279.460 142.037 C 279.373 142.549,279.350 143.015,279.407 143.073 C 279.465 143.131,279.580 142.756,279.662 142.240 C 279.745 141.724,279.768 141.258,279.715 141.204 C 279.661 141.150,279.546 141.525,279.460 142.037 M142.643 142.851 C 142.791 144.375,142.899 144.588,142.916 143.388 C 142.924 142.831,142.842 142.235,142.733 142.063 C 142.612 141.871,142.577 142.174,142.643 142.851 M174.018 142.487 C 174.017 142.812,174.652 144.100,174.668 143.807 C 174.673 143.729,174.528 143.324,174.348 142.907 C 174.167 142.491,174.018 142.302,174.018 142.487 M274.036 145.976 C 274.036 147.957,274.071 148.737,274.112 147.710 C 274.154 146.683,274.154 145.062,274.112 144.109 C 274.070 143.155,274.036 143.995,274.036 145.976 M210.329 145.976 C 210.330 147.586,210.366 148.215,210.409 147.374 C 210.453 146.533,210.452 145.216,210.408 144.448 C 210.365 143.679,210.329 144.367,210.329 145.976 M148.200 145.864 C 148.200 147.288,148.236 147.870,148.281 147.158 C 148.326 146.446,148.326 145.281,148.281 144.569 C 148.236 143.858,148.200 144.440,148.200 145.864 M119.580 144.288 C 119.580 144.721,119.626 144.899,119.682 144.682 C 119.739 144.465,119.739 144.111,119.682 143.894 C 119.626 143.678,119.580 143.855,119.580 144.288 M252.223 144.738 C 252.415 145.110,252.623 145.414,252.685 145.414 C 252.747 145.414,252.640 145.110,252.448 144.738 C 252.256 144.367,252.048 144.063,251.986 144.063 C 251.924 144.063,252.031 144.367,252.223 144.738 M114.199 145.751 C 114.200 146.618,114.240 146.945,114.289 146.478 C 114.338 146.011,114.337 145.302,114.287 144.902 C 114.238 144.503,114.198 144.885,114.199 145.751 M156.480 144.861 C 156.103 145.688,156.175 145.865,156.583 145.112 C 156.773 144.761,156.887 144.431,156.835 144.380 C 156.784 144.328,156.624 144.545,156.480 144.861 M143.010 145.864 C 143.010 146.669,143.050 146.998,143.100 146.595 C 143.150 146.193,143.150 145.535,143.100 145.132 C 143.050 144.730,143.010 145.059,143.010 145.864 M161.196 145.214 C 161.057 145.611,160.983 145.976,161.031 146.024 C 161.079 146.073,161.232 145.786,161.371 145.389 C 161.509 144.991,161.583 144.626,161.535 144.578 C 161.487 144.530,161.334 144.816,161.196 145.214 M291.322 145.909 C 291.162 146.069,291.068 146.731,291.091 147.541 L 291.130 148.903 291.260 147.440 L 291.390 145.976 297.891 145.917 C 302.499 145.874,304.481 145.931,304.700 146.113 C 304.891 146.271,305.008 146.282,305.008 146.141 C 305.008 145.562,291.891 145.340,291.322 145.909 M253.799 147.440 C 253.991 147.811,254.198 148.115,254.260 148.115 C 254.322 148.115,254.216 147.811,254.024 147.440 C 253.832 147.068,253.624 146.764,253.562 146.764 C 253.500 146.764,253.606 147.068,253.799 147.440 M142.777 148.452 C 142.779 149.071,142.822 149.298,142.874 148.956 C 142.926 148.614,142.924 148.107,142.871 147.830 C 142.817 147.553,142.775 147.833,142.777 148.452 M176.053 147.777 C 176.057 147.901,176.255 148.407,176.493 148.903 C 176.732 149.398,176.863 149.550,176.786 149.240 C 176.628 148.603,176.041 147.433,176.053 147.777 M279.363 148.809 C 279.372 149.232,279.467 149.781,279.574 150.028 C 279.699 150.318,279.723 150.077,279.639 149.353 C 279.484 148.014,279.341 147.732,279.363 148.809 M159.827 148.706 C 159.816 149.107,160.434 149.513,160.878 149.398 C 161.203 149.313,161.185 149.287,160.788 149.266 C 160.515 149.252,160.189 149.063,160.063 148.846 C 159.937 148.630,159.831 148.567,159.827 148.706 M171.266 148.780 C 171.198 148.983,170.690 149.170,169.934 149.271 L 168.711 149.434 170.005 149.375 C 171.392 149.312,171.628 149.211,171.473 148.748 C 171.397 148.519,171.350 148.526,171.266 148.780 M114.627 150.141 C 114.627 150.574,114.674 150.751,114.730 150.535 C 114.787 150.318,114.787 149.963,114.730 149.747 C 114.674 149.530,114.627 149.707,114.627 150.141 M215.220 149.953 C 215.206 150.160,215.136 150.515,215.065 150.741 C 214.942 151.132,214.948 151.133,215.192 150.753 C 215.334 150.532,215.404 150.178,215.348 149.965 C 215.256 149.616,215.244 149.615,215.220 149.953 M293.705 149.857 C 294.359 149.902,295.372 149.902,295.956 149.856 C 296.540 149.809,296.005 149.772,294.766 149.773 C 293.528 149.773,293.051 149.811,293.705 149.857 M297.636 149.846 C 297.853 149.902,298.208 149.902,298.424 149.846 C 298.641 149.789,298.464 149.743,298.030 149.743 C 297.597 149.743,297.420 149.789,297.636 149.846 M299.561 149.961 C 299.928 150.327,299.944 158.148,299.578 158.374 C 299.439 158.460,298.857 158.667,298.284 158.835 C 297.246 159.139,297.245 159.139,298.143 159.013 C 300.057 158.744,300.056 158.745,300.056 154.318 C 300.056 150.357,299.982 149.690,299.537 149.690 C 299.372 149.690,299.380 149.780,299.561 149.961 M120.016 150.478 C 120.012 150.726,120.096 151.131,120.203 151.379 C 120.449 151.952,120.449 151.361,120.203 150.591 C 120.058 150.138,120.021 150.116,120.016 150.478 M177.282 151.041 C 177.364 151.351,177.526 151.756,177.641 151.941 C 177.786 152.176,177.803 152.107,177.699 151.716 C 177.616 151.407,177.454 151.002,177.340 150.816 C 177.195 150.581,177.177 150.650,177.282 151.041 M154.004 151.388 C 153.627 152.216,153.699 152.393,154.107 151.640 C 154.297 151.289,154.411 150.959,154.359 150.908 C 154.308 150.856,154.148 151.073,154.004 151.388 M261.227 151.491 C 261.419 151.863,261.627 152.167,261.689 152.167 C 261.750 152.167,261.644 151.863,261.452 151.491 C 261.260 151.120,261.052 150.816,260.990 150.816 C 260.928 150.816,261.035 151.120,261.227 151.491 M214.555 152.064 C 214.178 152.891,214.250 153.068,214.658 152.315 C 214.848 151.964,214.962 151.634,214.911 151.583 C 214.859 151.531,214.699 151.748,214.555 152.064 M274.652 151.941 C 274.652 152.127,274.739 152.482,274.845 152.729 C 274.967 153.013,275.039 153.055,275.039 152.842 C 275.039 152.656,274.952 152.302,274.845 152.054 C 274.723 151.770,274.652 151.729,274.652 151.941 M256.950 152.842 C 257.142 153.213,257.350 153.517,257.412 153.517 C 257.474 153.517,257.367 153.213,257.175 152.842 C 256.983 152.470,256.775 152.167,256.713 152.167 C 256.651 152.167,256.758 152.470,256.950 152.842 M153.317 153.092 C 153.178 153.490,153.104 153.855,153.152 153.903 C 153.201 153.951,153.353 153.665,153.492 153.267 C 153.631 152.869,153.705 152.504,153.657 152.456 C 153.609 152.408,153.456 152.694,153.317 153.092 M115.347 153.180 C 115.435 153.551,115.604 153.954,115.723 154.075 C 115.841 154.196,115.819 153.943,115.673 153.512 C 115.333 152.504,115.141 152.308,115.347 153.180 M141.103 153.981 C 140.779 154.589,140.604 155.031,140.716 154.962 C 140.957 154.813,141.876 153.056,141.769 152.948 C 141.727 152.907,141.428 153.372,141.103 153.981 M158.121 153.763 C 157.923 154.146,157.805 154.504,157.860 154.558 C 157.914 154.613,158.087 154.347,158.244 153.969 L 158.529 153.280 165.793 153.342 C 169.789 153.377,173.011 153.329,172.954 153.236 C 172.896 153.143,169.616 153.067,165.665 153.067 L 158.481 153.067 158.121 153.763 M207.428 154.504 C 206.809 155.158,205.999 155.918,205.627 156.193 C 205.256 156.468,205.155 156.595,205.402 156.474 C 206.078 156.146,207.688 154.709,208.224 153.956 C 208.889 153.023,208.720 153.138,207.428 154.504 M281.217 154.096 C 281.410 154.477,281.739 154.930,281.948 155.103 C 282.157 155.277,282.057 155.019,281.725 154.530 C 280.942 153.375,280.781 153.238,281.217 154.096 M258.098 154.755 C 258.436 155.374,258.808 155.982,258.925 156.106 C 259.259 156.459,258.267 154.584,257.854 154.080 C 257.651 153.832,257.761 154.136,258.098 154.755 M275.295 153.825 C 275.295 154.069,276.414 156.218,276.541 156.218 C 276.603 156.218,276.386 155.687,276.060 155.037 C 275.432 153.787,275.295 153.570,275.295 153.825 M115.932 154.530 C 115.929 154.875,117.229 157.064,117.553 157.258 C 117.784 157.397,117.784 157.363,117.553 157.077 C 117.396 156.883,116.967 156.180,116.601 155.515 C 116.234 154.849,115.933 154.406,115.932 154.530 M121.730 154.758 C 121.857 155.007,122.199 155.411,122.489 155.657 C 122.998 156.087,122.997 156.079,122.457 155.429 C 121.561 154.349,121.485 154.280,121.730 154.758 M212.818 155.374 C 212.469 155.900,211.720 156.843,211.156 157.468 C 210.495 158.200,210.611 158.114,211.480 157.228 C 212.223 156.471,213.014 155.529,213.237 155.135 C 213.821 154.105,213.565 154.251,212.818 155.374 M263.155 154.773 C 263.452 155.131,263.815 155.198,263.815 154.894 C 263.815 154.785,263.607 154.641,263.352 154.574 C 262.972 154.475,262.937 154.510,263.155 154.773 M152.416 155.374 C 152.060 156.327,151.911 156.894,152.018 156.894 C 152.076 156.894,152.280 156.438,152.469 155.881 C 152.816 154.863,152.770 154.427,152.416 155.374 M139.223 156.395 C 138.604 156.982,137.845 157.643,137.535 157.863 C 136.993 158.249,137.000 158.249,137.704 157.868 C 138.342 157.523,140.732 155.310,140.453 155.323 C 140.396 155.325,139.842 155.808,139.223 156.395 M282.343 155.699 C 282.533 156.005,284.299 157.431,284.299 157.277 C 284.299 157.220,283.823 156.783,283.241 156.305 C 282.658 155.828,282.255 155.555,282.343 155.699 M312.359 156.387 C 312.301 156.480,313.587 156.556,315.215 156.556 L 318.177 156.556 318.240 159.465 C 318.287 161.640,318.231 162.419,318.015 162.556 C 317.393 162.951,312.703 162.779,312.455 162.352 C 312.329 162.136,312.222 162.065,312.218 162.195 C 312.197 162.946,316.879 163.380,318.079 162.738 C 318.607 162.455,318.752 156.996,318.244 156.488 C 317.943 156.188,312.540 156.095,312.359 156.387 M328.295 156.505 C 328.231 156.670,328.208 158.116,328.243 159.719 L 328.306 162.634 329.882 162.648 L 331.458 162.663 329.938 162.582 L 328.419 162.501 328.419 159.472 L 328.419 156.443 331.345 156.443 L 334.271 156.443 334.271 159.471 L 334.271 162.499 333.032 162.585 L 331.793 162.671 333.088 162.652 L 334.384 162.634 334.384 159.482 L 334.384 156.331 331.397 156.268 C 329.072 156.219,328.384 156.272,328.295 156.505 M344.315 156.568 C 344.238 156.767,344.196 158.163,344.222 159.670 L 344.267 162.409 344.390 159.482 L 344.513 156.556 347.383 156.493 L 350.253 156.430 350.253 159.469 L 350.253 162.508 347.271 162.581 L 344.288 162.655 347.327 162.644 L 350.366 162.634 350.366 159.482 L 350.366 156.331 347.410 156.268 C 344.863 156.214,344.434 156.256,344.315 156.568 M277.070 157.082 C 277.321 157.434,277.703 157.864,277.921 158.039 C 278.138 158.214,277.974 157.926,277.556 157.400 C 276.697 156.320,276.379 156.111,277.070 157.082 M179.656 157.119 C 179.652 157.304,179.788 157.760,179.958 158.132 C 180.356 159.001,180.362 158.597,179.966 157.569 C 179.799 157.136,179.660 156.933,179.656 157.119 M143.845 158.526 C 143.176 159.299,142.910 159.679,143.255 159.370 C 143.881 158.809,145.300 157.119,145.145 157.119 C 145.100 157.119,144.515 157.752,143.845 158.526 M151.516 157.819 C 151.378 158.217,151.304 158.582,151.352 158.630 C 151.400 158.678,151.553 158.392,151.691 157.994 C 151.830 157.596,151.904 157.231,151.856 157.183 C 151.808 157.135,151.655 157.421,151.516 157.819 M117.727 157.639 C 117.727 157.678,118.056 158.007,118.458 158.371 L 119.190 159.032 118.529 158.301 C 117.912 157.619,117.727 157.465,117.727 157.639 M174.805 158.469 C 174.888 158.779,175.050 159.184,175.165 159.370 C 175.310 159.604,175.327 159.536,175.223 159.145 C 175.140 158.835,174.978 158.430,174.864 158.244 C 174.719 158.010,174.701 158.078,174.805 158.469 M260.456 158.807 C 260.734 159.302,261.058 159.809,261.176 159.932 C 261.513 160.286,260.742 158.860,260.324 158.357 C 260.118 158.109,260.178 158.312,260.456 158.807 M135.397 158.815 C 134.834 159.086,134.815 159.117,135.284 159.003 C 135.922 158.847,136.639 158.481,136.297 158.486 C 136.173 158.488,135.768 158.636,135.397 158.815 M190.807 158.751 C 190.932 158.956,196.815 158.935,198.537 158.722 C 199.253 158.634,197.864 158.572,195.240 158.576 C 192.746 158.579,190.751 158.658,190.807 158.751 M287.113 158.815 C 287.485 158.985,287.940 159.121,288.126 159.117 C 288.312 159.114,288.109 158.974,287.676 158.807 C 286.648 158.411,286.244 158.417,287.113 158.815 M229.917 158.970 C 229.957 159.170,230.651 159.291,232.207 159.370 L 234.440 159.482 234.508 160.925 C 234.555 161.919,234.485 162.432,234.283 162.574 C 234.056 162.734,234.066 162.760,234.328 162.689 C 234.760 162.572,234.930 159.937,234.536 159.463 C 234.344 159.230,233.708 159.145,232.180 159.145 C 230.976 159.145,230.040 159.047,229.974 158.914 C 229.911 158.787,229.885 158.812,229.917 158.970 M278.672 158.765 C 278.672 158.804,279.001 159.133,279.403 159.496 L 280.135 160.158 279.474 159.426 C 278.858 158.744,278.672 158.591,278.672 158.765 M150.741 159.857 C 150.537 160.376,150.408 160.837,150.453 160.882 C 150.498 160.927,150.703 160.542,150.910 160.026 C 151.116 159.510,151.246 159.049,151.198 159.002 C 151.150 158.954,150.945 159.339,150.741 159.857 M119.507 159.445 C 119.836 159.855,121.103 160.820,121.103 160.661 C 121.103 160.611,120.672 160.228,120.146 159.810 C 119.620 159.392,119.333 159.228,119.507 159.445 M128.892 159.396 C 129.127 159.488,130.231 159.559,131.345 159.553 C 133.813 159.540,133.446 159.424,130.580 159.311 C 129.417 159.265,128.657 159.303,128.892 159.396 M295.611 159.300 C 295.827 159.356,296.182 159.356,296.398 159.300 C 296.615 159.243,296.438 159.197,296.005 159.197 C 295.571 159.197,295.394 159.243,295.611 159.300 M291.230 159.537 C 292.009 159.581,293.224 159.580,293.931 159.536 C 294.638 159.491,294.001 159.455,292.515 159.456 C 291.030 159.456,290.451 159.493,291.230 159.537 M207.316 160.270 C 206.882 160.507,206.609 160.706,206.708 160.711 C 206.946 160.723,208.216 160.063,208.216 159.927 C 208.216 159.779,208.203 159.784,207.316 160.270 M219.766 161.058 C 219.767 161.801,219.809 162.078,219.859 161.673 C 219.909 161.268,219.908 160.661,219.857 160.322 C 219.806 159.984,219.765 160.315,219.766 161.058 M280.585 160.387 C 280.833 160.588,281.238 160.853,281.486 160.974 L 281.936 161.195 281.486 160.829 C 281.238 160.627,280.833 160.363,280.585 160.241 L 280.135 160.020 280.585 160.387 M261.677 160.945 C 261.869 161.317,262.077 161.621,262.139 161.621 C 262.201 161.621,262.094 161.317,261.902 160.945 C 261.710 160.574,261.502 160.270,261.440 160.270 C 261.378 160.270,261.485 160.574,261.677 160.945 M303.320 161.066 C 302.757 161.337,302.739 161.368,303.208 161.254 C 303.845 161.098,304.562 160.732,304.221 160.737 C 304.097 160.739,303.692 160.887,303.320 161.066 M123.354 161.958 C 123.663 162.135,124.018 162.280,124.142 162.280 C 124.266 162.280,124.114 162.135,123.804 161.958 C 123.495 161.781,123.140 161.637,123.016 161.637 C 122.893 161.637,123.044 161.781,123.354 161.958 M176.041 161.875 C 176.025 162.291,176.638 162.885,176.858 162.666 C 176.937 162.586,176.881 162.521,176.733 162.521 C 176.584 162.521,176.371 162.293,176.259 162.015 C 176.121 161.672,176.051 161.627,176.041 161.875 M283.399 161.958 C 283.708 162.135,284.063 162.280,284.187 162.280 C 284.311 162.280,284.159 162.135,283.849 161.958 C 283.540 161.781,283.185 161.637,283.061 161.637 C 282.938 161.637,283.089 161.781,283.399 161.958 M181.529 162.512 C 181.410 162.631,180.351 162.762,179.176 162.803 L 177.040 162.878 179.207 162.925 C 180.901 162.961,181.435 162.898,181.654 162.634 C 181.964 162.261,181.870 162.170,181.529 162.512 M136.410 162.746 C 135.957 162.891,135.935 162.928,136.297 162.933 C 136.545 162.937,136.950 162.853,137.198 162.746 C 137.771 162.500,137.179 162.500,136.410 162.746 M297.805 162.746 C 297.353 162.891,297.331 162.928,297.693 162.933 C 297.940 162.937,298.346 162.853,298.593 162.746 C 299.167 162.500,298.575 162.500,297.805 162.746 M151.998 162.910 C 152.462 162.959,153.222 162.959,153.686 162.910 C 154.150 162.862,153.770 162.822,152.842 162.822 C 151.913 162.822,151.533 162.862,151.998 162.910 M188.801 162.914 C 190.442 162.953,193.126 162.953,194.766 162.914 C 196.407 162.876,195.065 162.845,191.784 162.845 C 188.503 162.845,187.161 162.876,188.801 162.914 " stroke="none" fill="#7c7c7c" fill-rule="evenodd"></path><path id="path4" d="M175.983 66.572 C 177.258 66.612,179.284 66.612,180.485 66.572 C 181.685 66.531,180.642 66.498,178.165 66.499 C 175.689 66.499,174.707 66.532,175.983 66.572 M209.870 67.686 C 208.869 67.818,208.548 70.468,209.534 70.449 C 210.533 70.429,210.876 69.744,210.202 69.116 C 209.514 68.475,209.822 68.311,211.553 68.395 C 213.217 68.476,213.686 68.708,212.967 69.092 C 212.654 69.260,212.493 69.267,212.493 69.113 C 212.493 68.845,211.672 68.794,211.513 69.051 C 211.455 69.146,211.540 69.404,211.702 69.626 C 211.900 69.897,212.027 69.940,212.088 69.757 C 212.151 69.568,212.383 69.541,212.842 69.668 C 213.396 69.822,213.431 69.869,213.056 69.953 C 212.808 70.009,212.487 70.150,212.342 70.268 C 212.172 70.406,211.920 70.383,211.634 70.204 C 211.267 69.975,211.123 69.992,210.812 70.304 C 210.605 70.511,210.518 70.687,210.620 70.695 C 212.637 70.849,218.773 70.597,219.161 70.344 C 220.345 69.572,219.569 67.530,218.092 67.530 C 217.282 67.530,217.094 67.866,217.677 68.274 C 218.067 68.547,218.085 68.620,217.793 68.733 C 217.339 68.907,217.344 69.330,217.799 69.330 C 218.876 69.330,217.934 70.122,216.780 70.188 C 214.977 70.290,214.385 70.108,214.887 69.605 C 215.247 69.245,215.248 69.213,214.897 69.145 C 214.399 69.049,214.420 68.846,214.993 68.231 L 215.467 67.723 213.923 67.777 C 213.075 67.807,211.975 67.777,211.480 67.712 C 210.985 67.646,210.260 67.635,209.870 67.686 M219.246 69.105 C 219.246 69.603,218.889 69.889,218.684 69.557 C 218.486 69.236,218.781 68.395,219.037 68.553 C 219.152 68.624,219.246 68.872,219.246 69.105 M215.419 69.070 C 215.419 69.652,216.243 70.013,216.621 69.596 C 217.160 68.999,217.091 68.880,216.207 68.880 C 215.774 68.880,215.419 68.966,215.419 69.070 M207.834 74.735 C 206.621 75.224,206.327 77.489,207.382 78.224 C 209.203 79.493,211.686 81.013,213.906 82.217 C 215.928 83.314,217.880 81.838,216.903 79.950 C 216.602 79.367,216.098 79.002,212.718 76.920 C 211.913 76.424,211.002 75.846,210.692 75.635 C 209.154 74.589,208.617 74.420,207.834 74.735 M209.905 75.730 C 210.153 75.991,210.761 76.385,211.256 76.605 C 211.750 76.825,212.307 77.104,212.493 77.226 C 212.679 77.347,213.128 77.621,213.492 77.834 C 213.855 78.047,214.392 78.450,214.684 78.728 C 214.976 79.007,215.413 79.235,215.655 79.235 C 216.279 79.235,216.201 79.650,215.545 79.814 C 214.933 79.968,214.442 79.767,214.641 79.444 C 214.712 79.329,214.457 79.235,214.075 79.235 C 213.686 79.235,213.326 79.096,213.258 78.919 C 213.114 78.543,212.319 78.294,212.148 78.571 C 211.904 78.966,212.575 79.673,213.074 79.548 C 213.389 79.468,213.605 79.550,213.693 79.781 C 213.768 79.976,213.985 80.135,214.174 80.135 C 214.682 80.135,214.594 80.608,214.059 80.748 C 213.481 80.899,213.607 81.350,214.255 81.445 C 214.721 81.514,214.973 82.161,214.534 82.161 C 213.982 82.161,212.736 81.113,212.728 80.642 C 212.717 80.076,212.496 79.997,212.080 80.413 C 211.860 80.632,211.776 80.586,211.672 80.190 C 211.566 79.782,211.434 79.716,210.965 79.834 C 210.521 79.945,210.282 79.851,209.922 79.421 C 209.665 79.114,208.973 78.685,208.385 78.467 C 207.797 78.250,207.315 77.954,207.313 77.809 C 207.312 77.665,207.249 77.173,207.174 76.717 C 206.884 74.966,208.592 74.348,209.905 75.730 M208.047 76.315 C 207.769 76.427,207.541 76.627,207.541 76.758 C 207.541 77.143,208.244 77.304,208.452 76.967 C 208.676 76.604,208.726 76.655,209.018 77.546 C 209.286 78.363,209.793 78.419,210.165 77.673 C 210.467 77.066,210.070 76.555,209.285 76.541 C 209.069 76.537,208.891 76.432,208.891 76.308 C 208.891 76.041,208.726 76.043,208.047 76.315 M211.102 77.715 C 211.062 77.994,210.802 78.322,210.523 78.444 C 209.856 78.737,209.883 78.840,210.717 79.209 C 211.312 79.473,211.446 79.473,211.614 79.208 C 211.861 78.818,211.859 78.749,211.601 78.339 C 211.457 78.112,211.504 77.881,211.751 77.608 C 212.086 77.238,212.078 77.209,211.643 77.209 C 211.328 77.209,211.150 77.375,211.102 77.715 M202.004 80.416 C 201.579 80.919,201.580 80.920,202.026 80.558 C 202.273 80.358,202.628 80.138,202.814 80.070 C 203.100 79.964,203.097 79.943,202.792 79.928 C 202.595 79.918,202.240 80.138,202.004 80.416 M204.445 80.153 C 204.661 80.279,205.092 80.755,205.402 81.211 C 205.712 81.667,205.965 81.939,205.965 81.814 C 205.965 81.464,204.614 79.909,204.317 79.917 C 204.171 79.921,204.229 80.027,204.445 80.153 M216.770 80.585 C 217.189 81.369,216.261 82.541,215.430 82.277 C 215.104 82.173,214.969 81.938,214.969 81.470 C 214.969 80.777,215.342 80.573,215.562 81.147 C 215.768 81.681,216.145 81.269,215.996 80.673 C 215.825 79.993,216.417 79.926,216.770 80.585 M195.124 82.217 C 194.094 83.051,194.035 83.384,194.035 88.388 C 194.035 91.015,194.111 93.211,194.204 93.269 C 194.297 93.326,194.341 91.231,194.302 88.611 C 194.223 83.236,194.368 82.566,195.704 82.178 C 196.191 82.037,196.260 81.970,195.935 81.956 C 195.680 81.945,195.315 82.062,195.124 82.217 M197.159 82.302 C 197.447 82.504,197.820 82.985,197.988 83.372 C 198.157 83.758,198.298 83.905,198.303 83.698 C 198.313 83.252,197.258 81.936,196.891 81.936 C 196.751 81.936,196.871 82.101,197.159 82.302 M198.178 88.239 C 198.178 90.281,198.212 91.117,198.254 90.096 C 198.296 89.074,198.296 87.403,198.254 86.382 C 198.212 85.360,198.178 86.196,198.178 88.239 M205.290 90.039 C 205.290 90.859,207.471 91.868,208.216 91.393 C 208.448 91.245,208.292 91.220,207.716 91.312 C 206.971 91.432,206.789 91.358,206.084 90.653 C 205.647 90.217,205.290 89.940,205.290 90.039 M194.610 93.929 C 194.780 94.372,195.575 94.877,195.780 94.672 C 195.852 94.600,195.796 94.541,195.657 94.541 C 195.517 94.541,195.190 94.313,194.930 94.035 C 194.570 93.649,194.494 93.624,194.610 93.929 M291.452 128.246 C 291.982 128.294,292.792 128.293,293.253 128.245 C 293.714 128.196,293.281 128.157,292.290 128.158 C 291.300 128.159,290.923 128.199,291.452 128.246 M263.695 141.699 C 263.695 148.509,263.724 151.327,263.759 147.962 C 263.794 144.597,263.794 139.026,263.759 135.581 C 263.724 132.137,263.695 134.890,263.695 141.699 M268.649 145.526 C 268.649 154.440,268.677 158.054,268.711 153.557 C 268.745 149.060,268.745 141.767,268.711 137.350 C 268.677 132.933,268.649 136.612,268.649 145.526 M304.866 133.596 C 304.866 134.834,304.904 135.312,304.950 134.658 C 304.995 134.003,304.995 132.991,304.948 132.407 C 304.902 131.823,304.865 132.358,304.866 133.596 M229.931 145.864 C 229.931 152.983,229.959 155.895,229.994 152.335 C 230.029 148.776,230.029 142.952,229.994 139.392 C 229.959 135.833,229.931 138.745,229.931 145.864 M210.692 133.554 C 210.692 133.593,211.021 133.922,211.424 134.285 L 212.155 134.947 211.494 134.215 C 210.878 133.533,210.692 133.380,210.692 133.554 M215.724 145.976 C 215.724 147.091,215.762 147.575,215.809 147.052 C 215.856 146.530,215.857 145.618,215.810 145.026 C 215.764 144.435,215.725 144.862,215.724 145.976 M163.039 149.183 C 164.253 149.224,166.177 149.224,167.316 149.183 C 168.455 149.142,167.462 149.109,165.110 149.109 C 162.757 149.109,161.826 149.143,163.039 149.183 M118.402 158.540 C 118.402 158.579,118.731 158.908,119.133 159.271 L 119.865 159.932 119.204 159.201 C 118.588 158.519,118.402 158.366,118.402 158.540 M199.268 162.676 C 199.485 162.733,199.840 162.733,200.056 162.676 C 200.273 162.620,200.096 162.573,199.662 162.573 C 199.229 162.573,199.052 162.620,199.268 162.676 M96.076 162.915 C 99.087 162.950,103.949 162.950,106.881 162.915 C 109.813 162.879,107.349 162.850,101.407 162.850 C 95.464 162.850,93.066 162.879,96.076 162.915 M223.804 162.915 C 225.754 162.952,228.945 162.952,230.895 162.915 C 232.845 162.877,231.249 162.846,227.349 162.846 C 223.450 162.846,221.854 162.877,223.804 162.915 M243.053 162.905 C 243.333 162.959,243.738 162.957,243.953 162.901 C 244.168 162.845,243.939 162.800,243.444 162.803 C 242.949 162.805,242.773 162.852,243.053 162.905 M265.112 162.905 C 265.392 162.959,265.798 162.957,266.013 162.901 C 266.228 162.845,265.999 162.800,265.504 162.803 C 265.008 162.805,264.832 162.852,265.112 162.905 M329.719 162.911 C 330.248 162.959,331.059 162.958,331.520 162.910 C 331.981 162.861,331.548 162.823,330.557 162.823 C 329.567 162.824,329.190 162.864,329.719 162.911 M332.752 162.901 C 332.968 162.958,333.323 162.958,333.540 162.901 C 333.756 162.845,333.579 162.798,333.146 162.798 C 332.712 162.798,332.535 162.845,332.752 162.901 M346.033 162.913 C 346.745 162.957,347.909 162.957,348.621 162.913 C 349.333 162.868,348.751 162.831,347.327 162.831 C 345.903 162.831,345.321 162.868,346.033 162.913 M129.499 163.364 C 130.588 163.406,132.310 163.405,133.326 163.364 C 134.341 163.322,133.450 163.288,131.345 163.289 C 129.240 163.289,128.410 163.323,129.499 163.364 M290.096 163.364 C 291.241 163.405,293.115 163.405,294.260 163.364 C 295.405 163.323,294.468 163.290,292.178 163.290 C 289.887 163.290,288.950 163.323,290.096 163.364 " stroke="none" fill="#747474" fill-rule="evenodd"></path></g></svg>